<svg xmlns="http://www.w3.org/2000/svg" xmlns:xlink="http://www.w3.org/1999/xlink" xmlns:inkscape="http://www.inkscape.org/namespaces/inkscape" version="1.1" width="617.572" height="307.081" viewBox="0 0 617.572 307.081">
<defs>
<clipPath id="clip_1">
<path transform="matrix(1,0,0,-1,38.587,216.81699)" d="M0 0H578.7925V210.28896H0Z"/>
</clipPath>
</defs>
<path transform="matrix(1,0,0,-1,38.587,216.81699)" stroke-width=".3985" stroke-linecap="butt" stroke-dasharray="2.98883,2.98883" stroke-miterlimit="10" stroke-linejoin="miter" fill="none" stroke="#d9d9d9" d="M0 0H578.7925M0 42.05779H578.7925M0 84.11559H578.7925M0 126.17337H578.7925M0 168.23117H578.7925M0 210.28896H578.7925"/>
<path transform="matrix(1,0,0,-1,38.587,216.81699)" stroke-width=".19925" stroke-linecap="butt" stroke-miterlimit="10" stroke-linejoin="miter" fill="none" stroke="#7f807f" d="M11.57584 0V4.25214M23.15169 0V4.25214M34.72754 0V4.25214M46.30339 0V4.25214M57.87924 0V4.25214M69.4551 0V4.25214M81.03094 0V4.25214M92.6068 0V4.25214M104.18265 0V4.25214M115.7585 0V4.25214M127.33435 0V4.25214M138.9102 0V4.25214M150.48606 0V4.25214M162.0619 0V4.25214M173.63776 0V4.25214M185.2136 0V4.25214M196.78945 0V4.25214M208.3653 0V4.25214M219.94115 0V4.25214M231.517 0V4.25214M243.09285 0V4.25214M254.6687 0V4.25214M266.24455 0V4.25214M277.8204 0V4.25214M289.39628 0V4.25214M300.9721 0V4.25214M312.54798 0V4.25214M324.1238 0V4.25214M335.69966 0V4.25214M347.2755 0V4.25214M358.85136 0V4.25214M370.4272 0V4.25214M382.00306 0V4.25214M393.5789 0V4.25214M405.15476 0V4.25214M416.7306 0V4.25214M428.30647 0V4.25214M439.88233 0V4.25214M451.45817 0V4.25214M463.034 0V4.25214M474.60987 0V4.25214M486.1857 0V4.25214M497.76158 0V4.25214M509.33744 0V4.25214M520.91329 0V4.25214M532.48916 0V4.25214M544.06497 0V4.25214M555.6408 0V4.25214M567.2167 0V4.25214M11.57584 210.28896V206.0368M23.15169 210.28896V206.0368M34.72754 210.28896V206.0368M46.30339 210.28896V206.0368M57.87924 210.28896V206.0368M69.4551 210.28896V206.0368M81.03094 210.28896V206.0368M92.6068 210.28896V206.0368M104.18265 210.28896V206.0368M115.7585 210.28896V206.0368M127.33435 210.28896V206.0368M138.9102 210.28896V206.0368M150.48606 210.28896V206.0368M162.0619 210.28896V206.0368M173.63776 210.28896V206.0368M185.2136 210.28896V206.0368M196.78945 210.28896V206.0368M208.3653 210.28896V206.0368M219.94115 210.28896V206.0368M231.517 210.28896V206.0368M243.09285 210.28896V206.0368M254.6687 210.28896V206.0368M266.24455 210.28896V206.0368M277.8204 210.28896V206.0368M289.39628 210.28896V206.0368M300.9721 210.28896V206.0368M312.54798 210.28896V206.0368M324.1238 210.28896V206.0368M335.69966 210.28896V206.0368M347.2755 210.28896V206.0368M358.85136 210.28896V206.0368M370.4272 210.28896V206.0368M382.00306 210.28896V206.0368M393.5789 210.28896V206.0368M405.15476 210.28896V206.0368M416.7306 210.28896V206.0368M428.30647 210.28896V206.0368M439.88233 210.28896V206.0368M451.45817 210.28896V206.0368M463.034 210.28896V206.0368M474.60987 210.28896V206.0368M486.1857 210.28896V206.0368M497.76158 210.28896V206.0368M509.33744 210.28896V206.0368M520.91329 210.28896V206.0368M532.48916 210.28896V206.0368M544.06497 210.28896V206.0368M555.6408 210.28896V206.0368M567.2167 210.28896V206.0368"/>
<path transform="matrix(1,0,0,-1,38.587,216.81699)" stroke-width=".19925" stroke-linecap="butt" stroke-miterlimit="10" stroke-linejoin="miter" fill="none" stroke="#7f807f" d="M0 0H4.2526M0 42.05779H4.2526M0 84.11559H4.2526M0 126.17337H4.2526M0 168.23117H4.2526M0 210.28896H4.2526M578.7925 0H574.5399M578.7925 42.05779H574.5399M578.7925 84.11559H574.5399M578.7925 126.17337H574.5399M578.7925 168.23117H574.5399M578.7925 210.28896H574.5399"/>
<path transform="matrix(1,0,0,-1,38.587,216.81699)" stroke-width=".3985" stroke-linecap="butt" stroke-miterlimit="10" stroke-linejoin="miter" fill="none" stroke="#000000" d="M0 0V210.28896H578.7925V0H0Z"/>
<text xml:space="preserve" transform="matrix(0 -1 1 0 96.586 314.307)" font-size="6.9738" font-family="Computer Modern"><tspan y="-44.68" x="51.906 56.4041 60.379167 64.77963 71.86501 74.97533 78.95039 82.92546 86.893558 90.86862">Fand(1990)</tspan></text>
<text xml:space="preserve" transform="matrix(0 -1 1 0 86.036 348.00898)" font-size="6.9738" font-family="Computer Modern"><tspan y="-22.554" x="63.482 67.88247 71.42516 74.75167 78.72674 82.26943 86.6699 91.070369 95.03846 98.14877 100.51289 105.56192 108.67223 112.6473 116.62237 120.597438 124.5725">Seckendorff(2020)</tspan></text>
<text xml:space="preserve" transform="matrix(0 -1 1 0 107.144 350.05299)" font-size="6.9738" font-family="Computer Modern"><tspan y="-32.086" x="75.058 80.93691 84.91198 88.02229 91.13261 93.38515 96.54428 100.51935 107.60473 110.71504 114.69011 118.66518 122.64024 126.61531">Harrison(2013)</tspan></text>
<text xml:space="preserve" transform="matrix(0 -1 1 0 138.944 341.40299)" font-size="6.9738" font-family="Computer Modern"><tspan y="-52.311" x="86.633 91.87033 98.95571 102.066028 106.04109 110.01616 113.99123 117.95932">Yu(2002)</tspan></text>
<text xml:space="preserve" transform="matrix(0 -1 1 0 138.177 365.32197)" font-size="6.9738" font-family="Computer Modern"><tspan y="-39.968" x="98.209 105.37807 108.92076 113.10504 116.215358 122.875339 125.98565 129.96071 133.93578 137.91085 141.88591">Mehta(1969)</tspan></text>
<text xml:space="preserve" transform="matrix(0 -1 1 0 141.32501 385.326)" font-size="6.9738" font-family="Computer Modern"><tspan y="-31.54" x="109.785 114.9247 118.899768 122.01008 125.55277 128.66309 131.82222 135.79729 142.88266 145.99298 149.96805 153.94312 157.91819 161.89325">Paterson(1986)</tspan></text>
<text xml:space="preserve" transform="matrix(0 -1 1 0 164.171 385.632)" font-size="6.9738" font-family="Computer Modern"><tspan y="-42.81" x="121.361 125.42673 129.4018 133.80226 137.34496 143.189 146.29932 150.27439 154.24945 158.22452 162.19959">Jones(1983)</tspan></text>
<text xml:space="preserve" transform="matrix(0 -1 1 0 173.64402 399.309)" font-size="6.9738" font-family="Computer Modern"><tspan y="-40.708" x="132.936 138.29189 141.4022 145.37728 149.77774 156.86312 159.97344 163.9485 167.92357 171.89864 175.8737">Ergun(1952)</tspan></text>
<text xml:space="preserve" transform="matrix(0 -1 1 0 184.695 411.40998)" font-size="6.9738" font-family="Computer Modern"><tspan y="-40.183" x="144.512 151.89725 155.43994 159.62422 162.73455 168.96215 172.07247 176.04753 180.0226 183.99767 187.97274">Wentz(1963)</tspan></text>
<text xml:space="preserve" transform="matrix(0 -1 1 0 196.367 422.89)" font-size="6.9738" font-family="Computer Modern"><tspan y="-40.279" x="156.088 161.44388 164.5542 168.95467 171.2072 180.4405 183.55083 187.5259 191.50096 195.47603 199.4511">Erdim(2015)</tspan></text>
<text xml:space="preserve" transform="matrix(0 -1 1 0 206.559 435.848)" font-size="6.9738" font-family="Computer Modern"><tspan y="-38.896" x="167.663 173.5419 177.0846 183.633 187.17569 193.40329 196.51361 200.48868 204.46375 208.43881 212.41388">Nemec(2005)</tspan></text>
<text xml:space="preserve" transform="matrix(0 -1 1 0 228.007 437.552)" font-size="6.9738" font-family="Computer Modern"><tspan y="-48.768" x="179.239 185.3341 188.44443 195.1044 198.21472 202.18979 206.16486 210.13993 214.11499">Kta(1981)</tspan></text>
<text xml:space="preserve" transform="matrix(0 -1 1 0 233.128 455.58299)" font-size="6.9738" font-family="Computer Modern"><tspan y="-42.313" x="190.815 195.31311 198.8558 201.10834 203.36087 206.90357 213.13117 216.24149 220.21656 224.19162 228.16669 232.14176">Felice(2004)</tspan></text>
<text xml:space="preserve" transform="matrix(0 -1 1 0 242.337 469.524)" font-size="6.9738" font-family="Computer Modern"><tspan y="-39.947" x="202.39 208.08063 212.4811 216.02379 220.42426 227.08423 230.19455 234.16962 238.14469 242.11975 246.09482">Cheng(2011)</tspan></text>
<text xml:space="preserve" transform="matrix(0 -1 1 0 239.959 495.054)" font-size="6.9738" font-family="Computer Modern"><tspan y="-25.993" x="213.966 219.01505 222.99011 225.24265 227.49518 234.04358 238.01865 242.41912 246.39418 252.62178 255.7321 259.70716 263.67524 267.6503 271.62538">Tallmadge(1970)</tspan></text>
<text xml:space="preserve" transform="matrix(0 -1 1 0 267.20503 490.96003)" font-size="6.9738" font-family="Computer Modern"><tspan y="-41.663" x="225.542 231.65804 235.20073 239.1758 243.57627 248.5137 251.62403 255.59909 259.57417 263.54924 267.5243">Ozahi(2008)</tspan></text>
<text xml:space="preserve" transform="matrix(0 -1 1 0 278.255 503.06196)" font-size="6.9738" font-family="Computer Modern"><tspan y="-41.137" x="237.118 243.11547 245.368 249.55228 253.52735 260.61274 263.72306 267.69813 271.6732 275.64826 279.62333">Dixon(2023)</tspan></text>
<text xml:space="preserve" transform="matrix(0 -1 1 0 277.605 526.86196)" font-size="6.9738" font-family="Computer Modern"><tspan y="-28.912" x="248.693 254.5719 258.53999 262.51506 266.69935 269.80967 274.21015 278.61064 284.40586 287.51618 291.49125 295.4663 299.44139 303.41645">Avontuur(1996)</tspan></text>
<text xml:space="preserve" transform="matrix(0 -1 1 0 293.997 533.622)" font-size="6.9738" font-family="Computer Modern"><tspan y="-33.728" x="260.269 266.0503 269.593 271.84553 275.17204 279.5725 283.1152 285.36775 291.16297 294.2733 298.24836 302.22343 306.1985 310.17356">Reichelt(1972)</tspan></text>
<text xml:space="preserve" transform="matrix(0 -1 1 0 305.157 545.614)" font-size="6.9738" font-family="Computer Modern"><tspan y="-33.312" x="271.845 277.7239 281.69898 286.09947 290.49995 292.75248 296.29518 303.16435 306.27467 310.24974 314.2248 318.19987 322.17494">Handley(1968)</tspan></text>
<text xml:space="preserve" transform="matrix(0 -1 1 0 314.35899 559.562)" font-size="6.9738" font-family="Computer Modern"><tspan y="-30.939" x="283.42 289.2013 293.17637 295.4289 298.7554 302.9397 307.34019 310.4505 317.11048 320.2208 324.19587 328.17094 332.146 336.12107">Raichura(1999)</tspan></text>
<text xml:space="preserve" transform="matrix(0 -1 1 0 333.51 563.563)" font-size="6.9738" font-family="Computer Modern"><tspan y="-38.514" x="294.996 300.35188 302.6044 305.76353 308.23225 311.77494 314.02748 321.11286 324.22319 328.19825 332.1733 336.14839 340.12345">Eisfeld(2001)</tspan></text>
<text xml:space="preserve" transform="matrix(0 -1 1 0 354.054 566.171)" font-size="6.9738" font-family="Computer Modern"><tspan y="-47.482" x="306.572 312.66709 317.06758 323.72755 326.83787 330.81294 334.788 338.76307 342.73814">Kuo(1978)</tspan></text>
<text xml:space="preserve" transform="matrix(0 -1 1 0 352.407 590.968)" font-size="6.9738" font-family="Computer Modern"><tspan y="-34.26" x="318.147 323.83763 327.81269 330.923 337.4714 341.44648 348.53187 351.64219 355.61726 359.59233 363.56739 367.54246">Carman(1937)</tspan></text>
<text xml:space="preserve" transform="matrix(0 -1 1 0 353.59199 612.93496)" font-size="6.9738" font-family="Computer Modern"><tspan y="-23.869" x="329.723 336.89207 340.86714 344.40983 348.8103 352.78538 357.18586 361.16093 363.41346 370.49885 373.60917 377.58424 381.5593 385.53437 389.50944">Macdonald(1979)</tspan></text>
<text xml:space="preserve" transform="matrix(0 -1 1 0 368.281 621.398)" font-size="6.9738" font-family="Computer Modern"><tspan y="-26.982" x="341.299 348.68428 352.65934 355.76966 359.74473 364.1452 368.12028 372.72999 378.95759 382.0679 386.04298 390.01805 393.9931 397.96818">Watanabe(1989)</tspan></text>
<text xml:space="preserve" transform="matrix(0 -1 1 0 390.159 622.672)" font-size="6.9738" font-family="Computer Modern"><tspan y="-37.284" x="352.875 358.9701 363.37059 366.4809 369.59123 373.1339 380.2193 383.32963 387.3047 391.27976 395.25483 399.2299">Kurten(1966)</tspan></text>
<text xml:space="preserve" transform="matrix(0 -1 1 0 390.76103 645.22)" font-size="6.9738" font-family="Computer Modern"><tspan y="-26.311" x="364.45 368.8505 371.96083 374.21336 377.53987 381.94035 384.19288 390.74128 394.71635 396.96888 402.7641 405.87443 409.8495 413.82456 417.79963 421.7747">Stichlmair(1989)</tspan></text>
<text xml:space="preserve" transform="matrix(0 -1 1 0 423.438 635.69497)" font-size="6.9738" font-family="Computer Modern"><tspan y="-47.412" x="376.026 382.19084 386.5913 393.25129 396.3616 400.33668 404.31175 408.2868 412.26188">Guo(2017)</tspan></text>
<text xml:space="preserve" transform="matrix(0 -1 1 0 428.213 654.07199)" font-size="6.9738" font-family="Computer Modern"><tspan y="-40.611" x="387.602 394.77107 398.31376 402.28187 405.82456 411.61979 414.7301 418.70518 422.68025 426.6553 430.63038">Meyer(1985)</tspan></text>
<text xml:space="preserve" transform="matrix(0 -1 1 0 440.3 665.135)" font-size="6.9738" font-family="Computer Modern"><tspan y="-41.123" x="399.177 405.29304 409.6935 413.2362 415.48875 417.74128 422.6787 425.78904 429.7641 433.73918 437.71424 441.6893">Oneill(1997)</tspan></text>
<text xml:space="preserve" transform="matrix(0 -1 1 0 447.336 681.251)" font-size="6.9738" font-family="Computer Modern"><tspan y="-36.583" x="410.753 415.25108 419.22615 422.38526 425.92796 429.903 432.15556 438.81553 441.92585 445.9009 449.87599 453.84407 457.81913">Foscolo(1983)</tspan></text>
<text xml:space="preserve" transform="matrix(0 -1 1 0 457.336 694.40298)" font-size="6.9738" font-family="Computer Modern"><tspan y="-35.007" x="422.329 428.01963 431.12995 433.38249 436.4928 440.46788 444.86836 451.95375 455.06407 459.03913 463.0142 466.98927 470.96434">Critoph(1996)</tspan></text>
<text xml:space="preserve" transform="matrix(0 -1 1 0 464.526 710.365)" font-size="6.9738" font-family="Computer Modern"><tspan y="-30.621" x="433.905 438.40309 442.37815 446.77864 453.32704 456.86973 461.05403 467.9232 471.0335 475.00859 478.98365 482.9587 486.93379">Foumeny(1993)</tspan></text>
<text xml:space="preserve" transform="matrix(0 -1 1 0 487.475 710.56607)" font-size="6.9738" font-family="Computer Modern"><tspan y="-41.995" x="445.48 451.2613 454.804 458.77906 462.32176 468.11698 471.2273 475.20237 479.17744 483.1525 487.12757">Reger(2023)</tspan></text>
<text xml:space="preserve" transform="matrix(0 -1 1 0 495.938 725.255)" font-size="6.9738" font-family="Computer Modern"><tspan y="-38.882" x="457.056 461.55409 465.52915 469.92964 472.18217 475.72486 482.81025 485.92057 489.89564 493.8707 497.83879 501.81385">Fahien(1983)</tspan></text>
<text xml:space="preserve" transform="matrix(0 -1 1 0 518.79806 725.547)" font-size="6.9738" font-family="Computer Modern"><tspan y="-50.166" x="468.632 476.01725 483.10264 486.21296 490.18803 494.1631 498.13117 502.10624">Wu(2025)</tspan></text>
<text xml:space="preserve" transform="matrix(0 -1 1 0 513.845 753.65)" font-size="6.9738" font-family="Computer Modern"><tspan y="-33.638" x="480.207 487.37608 491.35115 494.46147 498.00416 501.97923 511.21253 514.3228 518.29788 522.2729 526.2479 530.22299">Morcom(1946)</tspan></text>
<text xml:space="preserve" transform="matrix(0 -1 1 0 531.73007 758.917)" font-size="6.9738" font-family="Computer Modern"><tspan y="-39.947" x="491.783 497.4736 501.87409 505.41679 509.81727 516.47726 519.5875 523.56259 527.5376 531.51266 535.4877">Cheng(2021)</tspan></text>
<text xml:space="preserve" transform="matrix(0 -1 1 0 548.854 764.945)" font-size="6.9738" font-family="Computer Modern"><tspan y="-45.495" x="503.359 509.1403 513.11538 516.2745 522.5021 525.61239 529.5874 533.56246 537.5375 541.5125">Rose(1949)</tspan></text>
<text xml:space="preserve" transform="matrix(0 -1 1 0 564.87197 772.077)" font-size="6.9738" font-family="Computer Modern"><tspan y="-49.938" x="514.934 519.85757 523.4002 529.6278 532.7381 536.71316 540.6882 544.6632 548.63827">Lee(1994)</tspan></text>
<text xml:space="preserve" transform="matrix(0 -1 1 0 576.877 783.224)" font-size="6.9738" font-family="Computer Modern"><tspan y="-50.367" x="526.51 531.43356 533.6861 540.7715 543.8818 547.8568 551.83187 555.8069 559.7819">Liu(1994)</tspan></text>
<text xml:space="preserve" transform="matrix(0 -1 1 0 589.753 793.5)" font-size="6.9738" font-family="Computer Modern"><tspan y="-51.667" x="538.086 543.9649 551.0503 554.1606 558.1356 562.11068 566.0857 570.0607">Xu(2026)</tspan></text>
<text xml:space="preserve" transform="matrix(0 -1 1 0 568.67306 837.73)" font-size="6.9738" font-family="Computer Modern"><tspan y="-19.012" x="549.661 555.3516 559.32669 562.43698 566.8374 569.08999 573.4904 575.743 577.99557 581.9706 585.9456 588.1982 595.28359 598.39389 602.3689 606.34396 610.319 614.294">Carpinlioglu(2008)</tspan></text>
<text xml:space="preserve" transform="matrix(0 -1 1 0 599.358 830.197)" font-size="6.9738" font-family="Computer Modern"><tspan y="-38.121" x="561.237 566.9276 570.90267 577.45108 579.7036 582.8139 587.7514 590.8617 594.83676 598.81179 602.7868 606.76187">Comiti(1989)</tspan></text>
<text xml:space="preserve" transform="matrix(0 -1 1 0 614.454 838.253)" font-size="6.9738" font-family="Computer Modern"><tspan y="-41.641" x="572.813 578.6919 582.45077 586.4188 589.9615 595.80557 598.91586 602.89089 606.8659 610.84097 614.816">Hayes(1995)</tspan></text>
<text xml:space="preserve" transform="matrix(0 -1 1 0 627.531 848.328)" font-size="6.9738" font-family="Computer Modern"><tspan y="-43.142" x="584.389 590.2679 592.52047 595.8469 600.0312 605.87527 608.98556 612.9606 616.9356 620.91067 624.8857">Hicks(1970)</tspan></text>
<text xml:space="preserve" transform="matrix(0 -1 1 0 641.716 857.29299)" font-size="6.9738" font-family="Computer Modern"><tspan y="-45.752" x="595.964 600.8875 604.4302 608.189 614.842 617.9523 621.9273 625.90237 629.8774 633.8524">Leva(1949)</tspan></text>
<text xml:space="preserve" transform="matrix(0 -1 1 0 637.628 884.53298)" font-size="6.9738" font-family="Computer Modern"><tspan y="-30.088" x="607.54 614.70907 618.6841 622.86837 625.97866 628.2312 630.48379 632.7363 636.279 642.0742 645.1845 649.15957 653.1346 657.1096 661.08468">Montillet(2007)</tspan></text>
<text xml:space="preserve" transform="matrix(1 0 -0 1 .0000019073487 307.081)" font-size="9.9626" font-family="Computer Modern"><tspan y="-87.054" x="30.086">0</tspan></text>
<text xml:space="preserve" transform="matrix(1 0 -0 1 .0000019073487 307.081)" font-size="9.9626" font-family="Computer Modern"><tspan y="-129.111" x="25.105 30.0863">20</tspan></text>
<text xml:space="preserve" transform="matrix(1 0 -0 1 .0000019073487 307.081)" font-size="9.9626" font-family="Computer Modern"><tspan y="-171.168" x="25.105 30.0863">40</tspan></text>
<text xml:space="preserve" transform="matrix(1 0 -0 1 .0000019073487 307.081)" font-size="9.9626" font-family="Computer Modern"><tspan y="-213.226" x="25.105 30.0863">60</tspan></text>
<text xml:space="preserve" transform="matrix(1 0 -0 1 .0000019073487 307.081)" font-size="9.9626" font-family="Computer Modern"><tspan y="-255.283" x="25.105 30.0863">80</tspan></text>
<text xml:space="preserve" transform="matrix(1 0 -0 1 .0000019073487 307.081)" font-size="9.9626" font-family="Computer Modern"><tspan y="-297.34" x="20.123 25.1043 30.0856">100</tspan></text>
<g clip-path="url(#clip_1)">
<path transform="matrix(1,0,0,-1,38.587,216.81699)" d="M6.09631 0H17.05536V210.28896H6.09631ZM17.67216 0H28.63121V210.28896H17.67216ZM29.24802 0H40.20707V210.28896H29.24802ZM40.82387 0H51.78292V210.28896H40.82387ZM52.39972 0H63.35877V210.28896H52.39972ZM63.97557 0H74.93462V210.28896H63.97557ZM75.55142 0H86.510478V210.28896H75.55142ZM87.12727 0H98.08633V210.28896H87.12727ZM98.70313 0H109.662189V210.28896H98.70313ZM110.27898 0H121.23803V210.28896H110.27898ZM121.85483 0H132.81388V210.28896H121.85483ZM133.43068 0H144.38973V210.28896H133.43068ZM145.00653 0H155.96558V210.28896H145.00653ZM156.58238 .04205H167.54143V210.28896H156.58238ZM168.15824 .7991H179.11728V210.28896H168.15824ZM179.73407 1.03041H190.69312V210.28896H179.73407ZM191.30992 1.05144H202.26897V210.26793H191.30992ZM202.88578 1.82948H213.84482V210.28894H202.88578ZM214.46163 4.31091H225.42067V210.28896H214.46163ZM226.03748 4.41606H236.99652V210.28896H226.03748ZM237.61333 7.19186H248.57238V210.28896H237.61333ZM249.18918 10.82985H260.14823V210.28896H249.18918ZM260.76506 24.47763H271.7241V210.28896H260.76506ZM272.34089 25.67628H283.29994V210.26793H272.34089ZM283.91673 30.19748H294.87577V210.28896H283.91673ZM295.49259 30.66011H306.45164V210.28894H295.49259ZM307.06846 30.66011H318.0275V210.28894H307.06846ZM318.6443 33.58315H329.60334V210.28896H318.6443ZM330.22016 35.05515H341.1792V210.28896H330.22016ZM341.796 35.13925H352.75505V210.28894H341.796ZM353.37184 53.14001H364.33088V210.28896H353.37184ZM364.9477 62.03523H375.90675V210.28894H364.9477ZM376.52354 74.7577H387.48258V210.28894H376.52354ZM388.09938 76.22974H399.0584V210.28896H388.09938ZM399.67524 82.66457H410.63429V210.28897H399.67524ZM411.25108 86.93343H422.2101V210.28894H411.25108ZM422.82695 104.66081H433.78599V210.30997H422.82695ZM434.4028 124.40695H445.36186V210.28896H434.4028ZM445.97865 130.75765H456.93769V210.28894H445.97865ZM457.5545 143.08058H468.51356V210.28894H457.5545ZM469.13035 156.87557H480.0894V210.28896H469.13035ZM480.70619 182.34157H491.66523V210.28896H480.70619ZM492.28205 193.82332H503.2411V210.28896H492.28205ZM503.8579 199.2698H514.81698V210.28896H503.8579ZM515.4338 203.43354H526.3928V210.28896H515.4338ZM527.0096 205.3892H537.9686V210.30995H527.0096Z" fill="#90ee90"/>
<path transform="matrix(1,0,0,-1,38.587,216.81699)" d="M168.15824 .3154H179.11728V.79909H168.15824ZM179.73407 0H190.69312V1.03041H179.73407ZM191.30992 0H202.26897V1.05144H191.30992ZM214.46163 .48364H225.42067V4.3109H214.46163ZM226.03748 1.21967H236.99652V4.41607H226.03748ZM249.18918 3.8693H260.14823V10.82986H249.18918ZM260.76506 0H271.7241V24.47763H260.76506ZM272.34089 25.15056H283.29994V25.67629H272.34089ZM283.91673 .92526H294.87577V30.19746H283.91673ZM318.6443 28.32591H329.60334V33.58313H318.6443ZM330.22016 10.22002H341.1792V35.05513H330.22016ZM341.796 .23131H352.75505V35.13925H341.796ZM353.37184 44.93872H364.33088V53.14H353.37184ZM364.9477 56.71492H375.90675V62.03522H364.9477ZM376.52354 22.29062H387.48258V74.75771H376.52354ZM411.25108 64.68486H422.2101V86.933429H411.25108ZM422.82695 98.60448H433.78599V104.6608H422.82695ZM445.97865 0H456.93769V130.75765H445.97865ZM457.5545 18.14793H468.51356V143.08058H457.5545ZM469.13035 128.3814H480.0894V156.87555H469.13035ZM492.28205 0H503.2411V193.82332H492.28205ZM503.8579 22.54295H514.81698V199.26979H503.8579ZM527.0096 199.60628H537.9686V205.3892H527.0096ZM538.58547 206.35655H549.5445V210.28894H538.58547ZM550.1613 210.24689H561.12039V210.28896H550.1613Z" fill="#87ceeb"/>
<path transform="matrix(1,0,0,-1,38.587,216.81699)" d="M156.58238 0H167.54143V.04205H156.58238ZM168.15824 0H179.11728V.3154H168.15824ZM202.88578 0H213.84482V1.82948H202.88578ZM214.46163 0H225.42067V.48364H214.46163ZM226.03748 0H236.99652V1.21967H226.03748ZM237.61333 0H248.57238V7.19186H237.61333ZM249.18918 0H260.14823V3.8693H249.18918ZM272.34089 0H283.29994V25.15056H272.34089ZM283.91673 0H294.87577V.92526H283.91673ZM295.49259 0H306.45164V30.66011H295.49259ZM307.06846 0H318.0275V30.66011H307.06846ZM318.6443 0H329.60334V28.32591H318.6443ZM330.22016 0H341.1792V10.22002H330.22016ZM341.796 0H352.75505V.23131H341.796ZM353.37184 0H364.33088V44.93872H353.37184ZM364.9477 0H375.90675V56.71492H364.9477ZM376.52354 0H387.48258V22.29062H376.52354ZM388.09938 0H399.0584V76.22974H388.09938ZM399.67524 0H410.63429V82.66457H399.67524ZM411.25108 0H422.2101V64.68486H411.25108ZM422.82695 0H433.78599V98.60448H422.82695ZM434.4028 0H445.36186V124.40695H434.4028ZM457.5545 0H468.51356V18.14793H457.5545ZM469.13035 0H480.0894V128.3814H469.13035ZM480.70619 0H491.66523V182.34157H480.70619ZM503.8579 0H514.81698V22.54295H503.8579ZM515.4338 0H526.3928V203.43354H515.4338ZM527.0096 0H537.9686V199.60628H527.0096ZM538.58547 0H549.5445V206.35655H538.58547ZM550.1613 0H561.12039V210.24689H550.1613ZM561.7371 0H572.69619V210.28896H561.7371Z" fill="#fa8072"/>
</g>
<text xml:space="preserve" transform="matrix(0 -1 1 0 107.5 221.16498)" font-size="9.9626" font-family="Computer Modern"><tspan y="-96.708" x="10.792 17.437054 21.860449 25.765789 28.535393 31.304997 34.0746 38.497995 47.354749 55.653596 60.91385 66.45306 70.87645 76.96359 81.386989 86.08933 91.0806 95.50399 99.40933 104.39063 109.37193 117.11287 120.98832 132.60472 137.58602 143.96208 148.38549 151.15509 156.13639 158.90599 167.20484 171.62824 180.48499 184.39032 189.37162 194.91082 199.8921 204.3155">Verifiedmodelcoverage(%ofclaimedrange)</tspan></text>
<path transform="matrix(1,0,0,-1,38.587,216.81699)" d="M118.26697-90.06589H460.52555V-73.80167H118.26697Z" fill="#ffffff"/>
<path transform="matrix(1,0,0,-1,38.587,216.81699)" stroke-width=".3985" stroke-linecap="butt" stroke-miterlimit="10" stroke-linejoin="miter" fill="none" stroke="#000000" d="M118.26697-90.06589H460.52555V-73.80167H118.26697Z"/>
<path transform="matrix(1,0,0,-1,163.029,298.787)" d="M-2.98883-1.99252H2.98883V5.9777104H-2.98883Z" fill="#fa8072"/>
<path transform="matrix(1,0,0,-1,163.029,298.787)" stroke-width=".3985" stroke-linecap="butt" stroke-miterlimit="10" stroke-linejoin="miter" fill="none" stroke="#000000" d="M-2.98883-1.99252H2.98883V5.9777104H-2.98883Z"/>
<text xml:space="preserve" transform="matrix(1 0 -0 1 0 307.08097)" font-size="8.9664" font-family="Computer Modern"><tspan y="-5.679" x="168.21 173.96643 178.31514 188.04369 194.18569 198.79442 201.35881 203.9232 209.04302 211.6074 214.94292 222.86922">LowValidity(</tspan></text>
<text xml:space="preserve" transform="matrix(1 0 -0 1 0 307.08097)" font-size="8.9664" font-family="Computer Modern" font-style="italic"><tspan y="-5.679" x="226.45578">&#x003c;</tspan></text>
<text xml:space="preserve" transform="matrix(1 0 -0 1 0 307.08097)" font-size="8.9664" font-family="Computer Modern"><tspan y="-5.679" x="236.18433">0</tspan></text>
<text xml:space="preserve" transform="matrix(1 0 -0 1 0 307.08097)" font-size="8.9664" font-family="Computer Modern" font-style="italic"><tspan y="-5.679" x="240.79306">.</tspan></text>
<text xml:space="preserve" transform="matrix(1 0 -0 1 0 307.08097)" font-size="8.9664" font-family="Computer Modern"><tspan y="-5.679" x="243.35746 247.96619">2)</tspan></text>
<path transform="matrix(1,0,0,-1,271.655,298.787)" d="M-2.98883-1.99252H2.98883V5.9777104H-2.98883Z" fill="#87ceeb"/>
<path transform="matrix(1,0,0,-1,271.655,298.787)" stroke-width=".3985" stroke-linecap="butt" stroke-miterlimit="10" stroke-linejoin="miter" fill="none" stroke="#000000" d="M-2.98883-1.99252H2.98883V5.9777104H-2.98883Z"/>
<text xml:space="preserve" transform="matrix(1 0 -0 1 0 307.08097)" font-size="8.9664" font-family="Computer Modern"><tspan y="-5.679" x="276.835 285.28135 289.379 294.4988 297.0632 302.183 312.9427 319.08467 323.6934 326.25779 328.82218 333.942 336.50639 339.8329 347.76817 351.3547">MediumValidity(0</tspan></text>
<text xml:space="preserve" transform="matrix(1 0 -0 1 0 307.08097)" font-size="8.9664" font-family="Computer Modern" font-style="italic"><tspan y="-5.679" x="355.96345">.</tspan></text>
<text xml:space="preserve" transform="matrix(1 0 -0 1 0 307.08097)" font-size="8.9664" font-family="Computer Modern"><tspan y="-5.679" x="358.52784 363.13658 367.7453">2&#x2013;0</tspan></text>
<text xml:space="preserve" transform="matrix(1 0 -0 1 0 307.08097)" font-size="8.9664" font-family="Computer Modern" font-style="italic"><tspan y="-5.679" x="372.35404">.</tspan></text>
<text xml:space="preserve" transform="matrix(1 0 -0 1 0 307.08097)" font-size="8.9664" font-family="Computer Modern"><tspan y="-5.679" x="374.91844 379.52717">8)</tspan></text>
<path transform="matrix(1,0,0,-1,403.193,298.787)" d="M-2.98883-1.99252H2.98883V5.9777104H-2.98883Z" fill="#90ee90"/>
<path transform="matrix(1,0,0,-1,403.193,298.787)" stroke-width=".3985" stroke-linecap="butt" stroke-miterlimit="10" stroke-linejoin="miter" fill="none" stroke="#000000" d="M-2.98883-1.99252H2.98883V5.9777104H-2.98883Z"/>
<text xml:space="preserve" transform="matrix(1 0 -0 1 0 307.08097)" font-size="8.9664" font-family="Computer Modern"><tspan y="-5.679" x="408.374 415.28709 417.85148 422.4602 430.6555 436.79747 441.4062 443.97059 446.53498 451.6548 454.21919 457.5457 465.48097">HighValidity(</tspan></text>
<text xml:space="preserve" transform="matrix(1 0 -0 1 0 307.08097)" font-size="8.9664" font-family="Computer Modern" font-style="italic"><tspan y="-5.679" x="469.0675">&#x003e;</tspan></text>
<text xml:space="preserve" transform="matrix(1 0 -0 1 0 307.08097)" font-size="8.9664" font-family="Computer Modern"><tspan y="-5.679" x="478.78709">0</tspan></text>
<text xml:space="preserve" transform="matrix(1 0 -0 1 0 307.08097)" font-size="8.9664" font-family="Computer Modern" font-style="italic"><tspan y="-5.679" x="483.3958">.</tspan></text>
<text xml:space="preserve" transform="matrix(1 0 -0 1 0 307.08097)" font-size="8.9664" font-family="Computer Modern"><tspan y="-5.679" x="485.9602 490.56895">8)</tspan></text>
</svg>
