<svg xmlns="http://www.w3.org/2000/svg" xmlns:xlink="http://www.w3.org/1999/xlink" xmlns:inkscape="http://www.inkscape.org/namespaces/inkscape" version="1.1" width="385.007" height="178.33" viewBox="0 0 385.007 178.33">
<rect width="100%" height="100%" fill="white"/>
  <defs>
<clipPath id="clip_1">
<path transform="matrix(1,0,0,-1,45.561,132.369)" d="M0 0H323.67597V111.06868H0Z"/>
</clipPath>
</defs>
<path transform="matrix(1,0,0,-1,45.561,132.369)" stroke-width=".3985" stroke-linecap="butt" stroke-dasharray="2.98883,2.98883" stroke-miterlimit="10" stroke-linejoin="miter" fill="none" stroke="#d9d9d9" d="M0 0H323.67597M0 24.68193H323.67597M0 49.36386H323.67597M0 74.04579H323.67597M0 98.72772H323.67597"/>
<path transform="matrix(1,0,0,-1,45.561,132.369)" stroke-width=".19925" stroke-linecap="butt" stroke-miterlimit="10" stroke-linejoin="miter" fill="none" stroke="#7f807f" d="M0-4.25177V0M32.36758-4.25177V0M64.73518-4.25177V0M97.10278-4.25177V0M129.47039-4.25177V0M161.83797-4.25177V0M194.20557-4.25177V0M226.57317-4.25177V0M258.94078-4.25177V0M291.30836-4.25177V0M323.67597-4.25177V0M0 115.32047V111.06868M32.36758 115.32047V111.06868M64.73518 115.32047V111.06868M97.10278 115.32047V111.06868M129.47039 115.32047V111.06868M161.83797 115.32047V111.06868M194.20557 115.32047V111.06868M226.57317 115.32047V111.06868M258.94078 115.32047V111.06868M291.30836 115.32047V111.06868M323.67597 115.32047V111.06868"/>
<path transform="matrix(1,0,0,-1,45.561,132.369)" stroke-width=".19925" stroke-linecap="butt" stroke-miterlimit="10" stroke-linejoin="miter" fill="none" stroke="#7f807f" d="M0 0H4.25262M0 24.68193H4.25262M0 49.36386H4.25262M0 74.04579H4.25262M0 98.72772H4.25262M323.67597 0H319.4233M323.67597 24.68193H319.4233M323.67597 49.36386H319.4233M323.67597 74.04579H319.4233M323.67597 98.72772H319.4233"/>
<path transform="matrix(1,0,0,-1,45.561,132.369)" stroke-width=".3985" stroke-linecap="butt" stroke-miterlimit="10" stroke-linejoin="miter" fill="none" stroke="#000000" d="M0 0V111.06868H323.67597V0H0Z"/>
<text xml:space="preserve" transform="matrix(1 0 -0 1 0 178.33)" font-size="9.9626" font-family="Computer Modern"><tspan y="-31.769" x="43.07">0</tspan></text>
<text xml:space="preserve" transform="matrix(1 0 -0 1 0 178.33)" font-size="9.9626" font-family="Computer Modern"><tspan y="-31.769" x="71.563">0</tspan></text>
<text xml:space="preserve" transform="matrix(1 0 -0 1 0 178.33)" font-size="9.9626" font-family="Computer Modern" font-style="italic"><tspan y="-31.769" x="76.544307">.</tspan></text>
<text xml:space="preserve" transform="matrix(1 0 -0 1 0 178.33)" font-size="9.9626" font-family="Computer Modern"><tspan y="-31.769" x="79.3139">1</tspan></text>
<text xml:space="preserve" transform="matrix(1 0 -0 1 0 178.33)" font-size="9.9626" font-family="Computer Modern"><tspan y="-31.769" x="103.93">0</tspan></text>
<text xml:space="preserve" transform="matrix(1 0 -0 1 0 178.33)" font-size="9.9626" font-family="Computer Modern" font-style="italic"><tspan y="-31.769" x="108.9113">.</tspan></text>
<text xml:space="preserve" transform="matrix(1 0 -0 1 0 178.33)" font-size="9.9626" font-family="Computer Modern"><tspan y="-31.769" x="111.6809">2</tspan></text>
<text xml:space="preserve" transform="matrix(1 0 -0 1 0 178.33)" font-size="9.9626" font-family="Computer Modern"><tspan y="-31.769" x="136.298">0</tspan></text>
<text xml:space="preserve" transform="matrix(1 0 -0 1 0 178.33)" font-size="9.9626" font-family="Computer Modern" font-style="italic"><tspan y="-31.769" x="141.2793">.</tspan></text>
<text xml:space="preserve" transform="matrix(1 0 -0 1 0 178.33)" font-size="9.9626" font-family="Computer Modern"><tspan y="-31.769" x="144.0489">3</tspan></text>
<text xml:space="preserve" transform="matrix(1 0 -0 1 0 178.33)" font-size="9.9626" font-family="Computer Modern"><tspan y="-31.769" x="168.665">0</tspan></text>
<text xml:space="preserve" transform="matrix(1 0 -0 1 0 178.33)" font-size="9.9626" font-family="Computer Modern" font-style="italic"><tspan y="-31.769" x="173.64629">.</tspan></text>
<text xml:space="preserve" transform="matrix(1 0 -0 1 0 178.33)" font-size="9.9626" font-family="Computer Modern"><tspan y="-31.769" x="176.4159">4</tspan></text>
<text xml:space="preserve" transform="matrix(1 0 -0 1 0 178.33)" font-size="9.9626" font-family="Computer Modern"><tspan y="-31.769" x="201.032">0</tspan></text>
<text xml:space="preserve" transform="matrix(1 0 -0 1 0 178.33)" font-size="9.9626" font-family="Computer Modern" font-style="italic"><tspan y="-31.769" x="206.01329">.</tspan></text>
<text xml:space="preserve" transform="matrix(1 0 -0 1 0 178.33)" font-size="9.9626" font-family="Computer Modern"><tspan y="-31.769" x="208.7829">5</tspan></text>
<text xml:space="preserve" transform="matrix(1 0 -0 1 0 178.33)" font-size="9.9626" font-family="Computer Modern"><tspan y="-31.769" x="233.399">0</tspan></text>
<text xml:space="preserve" transform="matrix(1 0 -0 1 0 178.33)" font-size="9.9626" font-family="Computer Modern" font-style="italic"><tspan y="-31.769" x="238.3803">.</tspan></text>
<text xml:space="preserve" transform="matrix(1 0 -0 1 0 178.33)" font-size="9.9626" font-family="Computer Modern"><tspan y="-31.769" x="241.1499">6</tspan></text>
<text xml:space="preserve" transform="matrix(1 0 -0 1 0 178.33)" font-size="9.9626" font-family="Computer Modern"><tspan y="-31.769" x="265.766">0</tspan></text>
<text xml:space="preserve" transform="matrix(1 0 -0 1 0 178.33)" font-size="9.9626" font-family="Computer Modern" font-style="italic"><tspan y="-31.769" x="270.74729">.</tspan></text>
<text xml:space="preserve" transform="matrix(1 0 -0 1 0 178.33)" font-size="9.9626" font-family="Computer Modern"><tspan y="-31.769" x="273.51689">7</tspan></text>
<text xml:space="preserve" transform="matrix(1 0 -0 1 0 178.33)" font-size="9.9626" font-family="Computer Modern"><tspan y="-31.769" x="298.133">0</tspan></text>
<text xml:space="preserve" transform="matrix(1 0 -0 1 0 178.33)" font-size="9.9626" font-family="Computer Modern" font-style="italic"><tspan y="-31.769" x="303.1143">.</tspan></text>
<text xml:space="preserve" transform="matrix(1 0 -0 1 0 178.33)" font-size="9.9626" font-family="Computer Modern"><tspan y="-31.769" x="305.88389">8</tspan></text>
<text xml:space="preserve" transform="matrix(1 0 -0 1 0 178.33)" font-size="9.9626" font-family="Computer Modern"><tspan y="-31.769" x="330.501">0</tspan></text>
<text xml:space="preserve" transform="matrix(1 0 -0 1 0 178.33)" font-size="9.9626" font-family="Computer Modern" font-style="italic"><tspan y="-31.769" x="335.4823">.</tspan></text>
<text xml:space="preserve" transform="matrix(1 0 -0 1 0 178.33)" font-size="9.9626" font-family="Computer Modern"><tspan y="-31.769" x="338.2519">9</tspan></text>
<text xml:space="preserve" transform="matrix(1 0 -0 1 0 178.33)" font-size="9.9626" font-family="Computer Modern"><tspan y="-31.769" x="366.742">1</tspan></text>
<text xml:space="preserve" transform="matrix(1 0 -0 1 0 178.33002)" font-size="9.9626" font-family="Computer Modern"><tspan y="-42.751" x="37.06">0</tspan></text>
<text xml:space="preserve" transform="matrix(1 0 -0 1 .0000038146974 178.33)" font-size="9.9626" font-family="Computer Modern"><tspan y="-67.432" x="32.079 37.0603">10</tspan></text>
<text xml:space="preserve" transform="matrix(1 0 -0 1 .0000038146974 178.33)" font-size="9.9626" font-family="Computer Modern"><tspan y="-92.114" x="32.079 37.0603">20</tspan></text>
<text xml:space="preserve" transform="matrix(1 0 -0 1 .0000038146974 178.33)" font-size="9.9626" font-family="Computer Modern"><tspan y="-116.795" x="32.079 37.0603">30</tspan></text>
<text xml:space="preserve" transform="matrix(1 0 -0 1 .0000038146974 178.33002)" font-size="9.9626" font-family="Computer Modern"><tspan y="-141.477" x="32.079 37.0603">40</tspan></text>
<g clip-path="url(#clip_1)">
<path transform="matrix(1,0,0,-1,45.561,132.369)" d="M3.23676 0H29.130829V104.89821H3.23676ZM35.60435 0H61.49842V38.75063H35.60435ZM67.97194 0H93.86601V1.23409H67.97194ZM100.33954 0H126.23361V81.20355H100.33954ZM132.70714 0H158.60121V9.62595H132.70714ZM165.07474 0H190.96881V6.17047H165.07474ZM197.44234 0H223.33641V4.68956H197.44234ZM229.80992 0H255.704V.24681H229.80992ZM262.17753 0H288.0716V0H262.17753ZM294.5451 0H320.43919V0H294.5451Z" fill="#b3b3ff"/>
<path transform="matrix(1,0,0,-1,45.561,132.369)" stroke-width=".3985" stroke-linecap="butt" stroke-miterlimit="10" stroke-linejoin="miter" fill="none" stroke="#0000b3" d="M3.23676 0H29.130829V104.89821H3.23676ZM35.60435 0H61.49842V38.75063H35.60435ZM67.97194 0H93.86601V1.23409H67.97194ZM100.33954 0H126.23361V81.20355H100.33954ZM132.70714 0H158.60121V9.62595H132.70714ZM165.07474 0H190.96881V6.17047H165.07474ZM197.44234 0H223.33641V4.68956H197.44234ZM229.80992 0H255.704V.24681H229.80992ZM262.17753 0H288.0716V0H262.17753ZM294.5451 0H320.43919V0H294.5451Z"/>
</g>
<text xml:space="preserve" transform="matrix(1 0 -0 1 0 178.33002)" font-size="11.9552" font-family="Computer Modern"><tspan y="-16.626" x="157.258 165.05278 170.91083 174.16265 177.41446 183.91809 187.1699 191.40206 201.48029 206.10694 211.30745 217.15355 221.70848 226.909 231.5237">Validityscores,</tspan></text>
<text xml:space="preserve" transform="matrix(1 0 -0 1 0 178.33002)" font-size="11.9552" font-family="Computer Modern" font-style="italic"><tspan y="-16.626" x="238.68486">v</tspan></text>
<text xml:space="preserve" transform="matrix(1 0 -0 1 0 178.33002)" font-size="7.9701" font-family="Computer Modern"><tspan y="-14.832999" x="244.33499 248.328 252.79923">avg</tspan></text>
<text xml:space="preserve" transform="matrix(0 -1 1 0 60.192 162.638)" font-size="11.9552" font-family="Computer Modern"><tspan y="-37.942" x="22.25 31.19249 36.393 41.00771 44.259527 50.117574 60.518598 65.1333 71.63693 77.49498 82.695499 91.80536 98.63178 104.48983 109.04476 113.59969 116.85151 122.70956 133.11058 136.3624 146.11785">Designspaceportion[%]</tspan></text>
</svg>
