<svg xmlns="http://www.w3.org/2000/svg" xmlns:xlink="http://www.w3.org/1999/xlink" xmlns:inkscape="http://www.inkscape.org/namespaces/inkscape" version="1.1" width="675.707" height="245.592" viewBox="0 0 675.707 245.592">
<rect width="100%" height="100%" fill="white"/>
  <defs>
<clipPath id="clip_1">
<path transform="matrix(1,0,0,-1,39.832,189.107)" d="M0 0H635.4846V181.93727H0Z"/>
</clipPath>
</defs>
<path transform="matrix(1,0,0,-1,39.832,189.107)" stroke-width=".3985" stroke-linecap="butt" stroke-dasharray="2.98883,2.98883" stroke-miterlimit="10" stroke-linejoin="miter" fill="none" stroke="#bfbfbf" d="M68.33167 0V181.93727M136.66335 0V181.93727M204.99503 0V181.93727M273.3267 0V181.93727M341.65837 0V181.93727M409.99006 0V181.93727M478.32173 0V181.93727M546.6534 0V181.93727M614.9851 0V181.93727"/>
<path transform="matrix(1,0,0,-1,39.832,189.107)" stroke-width=".3985" stroke-linecap="butt" stroke-dasharray="2.98883,2.98883" stroke-miterlimit="10" stroke-linejoin="miter" fill="none" stroke="#bfbfbf" d="M34.16583 0V181.93727M102.49751 0V181.93727M170.82918 0V181.93727M239.16086 0V181.93727M307.49256 0V181.93727M375.82423 0V181.93727M444.15589 0V181.93727M512.48757 0V181.93727M580.8192 0V181.93727"/>
<path transform="matrix(1,0,0,-1,39.832,189.107)" stroke-width=".3985" stroke-linecap="butt" stroke-dasharray="2.98883,2.98883" stroke-miterlimit="10" stroke-linejoin="miter" fill="none" stroke="#bfbfbf" d="M0 22.74216H635.4846M0 68.22647H635.4846M0 113.71078H635.4846M0 159.19512H635.4846"/>
<path transform="matrix(1,0,0,-1,39.832,189.107)" stroke-width=".3985" stroke-linecap="butt" stroke-dasharray="2.98883,2.98883" stroke-miterlimit="10" stroke-linejoin="miter" fill="none" stroke="#bfbfbf" d="M0 0H635.4846M0 45.48431H635.4846M0 90.96863H635.4846M0 136.45296H635.4846M0 181.93727H635.4846"/>
<path transform="matrix(1,0,0,-1,39.832,189.107)" stroke-width=".19925" stroke-linecap="butt" stroke-miterlimit="10" stroke-linejoin="miter" fill="none" stroke="#7f807f" d="M68.33167-2.83485V0M136.66335-2.83485V0M204.99503-2.83485V0M273.3267-2.83485V0M341.65837-2.83485V0M409.99006-2.83485V0M478.32173-2.83485V0M546.6534-2.83485V0M614.9851-2.83485V0M68.33167 184.77214V181.93727M136.66335 184.77214V181.93727M204.99503 184.77214V181.93727M273.3267 184.77214V181.93727M341.65837 184.77214V181.93727M409.99006 184.77214V181.93727M478.32173 184.77214V181.93727M546.6534 184.77214V181.93727M614.9851 184.77214V181.93727"/>
<path transform="matrix(1,0,0,-1,39.832,189.107)" stroke-width=".19925" stroke-linecap="butt" stroke-miterlimit="10" stroke-linejoin="miter" fill="none" stroke="#7f807f" d="M34.16583-4.25186V0M102.49751-4.25186V0M170.82918-4.25186V0M239.16086-4.25186V0M307.49256-4.25186V0M375.82423-4.25186V0M444.15589-4.25186V0M512.48757-4.25186V0M580.8192-4.25186V0M34.16583 186.18915V181.93727M102.49751 186.18915V181.93727M170.82918 186.18915V181.93727M239.16086 186.18915V181.93727M307.49256 186.18915V181.93727M375.82423 186.18915V181.93727M444.15589 186.18915V181.93727M512.48757 186.18915V181.93727M580.8192 186.18915V181.93727"/>
<path transform="matrix(1,0,0,-1,39.832,189.107)" stroke-width=".19925" stroke-linecap="butt" stroke-miterlimit="10" stroke-linejoin="miter" fill="none" stroke="#7f807f" d="M0 22.74216H2.83528M0 68.22647H2.83528M0 113.71078H2.83528M0 159.19512H2.83528M635.4846 22.74216H632.6493M635.4846 68.22647H632.6493M635.4846 113.71078H632.6493M635.4846 159.19512H632.6493"/>
<path transform="matrix(1,0,0,-1,39.832,189.107)" stroke-width=".19925" stroke-linecap="butt" stroke-miterlimit="10" stroke-linejoin="miter" fill="none" stroke="#7f807f" d="M0 0H4.25258M0 45.48431H4.25258M0 90.96863H4.25258M0 136.45296H4.25258M0 181.93727H4.25258M635.4846 0H631.232M635.4846 45.48431H631.232M635.4846 90.96863H631.232M635.4846 136.45296H631.232M635.4846 181.93727H631.232"/>
<path transform="matrix(1,0,0,-1,39.832,189.107)" stroke-width=".79701" stroke-linecap="butt" stroke-miterlimit="10" stroke-linejoin="miter" fill="none" stroke="#000000" d="M0 0V181.93727H635.4846V0H0Z"/>
<text xml:space="preserve" transform="matrix(1 0 -0 1 0 245.592)" font-size="11.9552" font-family="Computer Modern"><tspan y="-40.959" x="62.292 68.15005 74.008098 79.86614">1940</tspan></text>
<text xml:space="preserve" transform="matrix(1 0 -0 1 0 245.592)" font-size="11.9552" font-family="Computer Modern"><tspan y="-40.959" x="130.623 136.48105 142.3391 148.19715">1950</tspan></text>
<text xml:space="preserve" transform="matrix(1 0 -0 1 0 245.592)" font-size="11.9552" font-family="Computer Modern"><tspan y="-40.959" x="198.953 204.81105 210.6691 216.52715">1960</tspan></text>
<text xml:space="preserve" transform="matrix(1 0 -0 1 0 245.592)" font-size="11.9552" font-family="Computer Modern"><tspan y="-40.959" x="267.284 273.14207 279.00013 284.8582">1970</tspan></text>
<text xml:space="preserve" transform="matrix(1 0 -0 1 0 245.592)" font-size="11.9552" font-family="Computer Modern"><tspan y="-40.959" x="335.615 341.47306 347.33113 353.18919">1980</tspan></text>
<text xml:space="preserve" transform="matrix(1 0 -0 1 0 245.592)" font-size="11.9552" font-family="Computer Modern"><tspan y="-40.959" x="403.946 409.80409 415.66215 421.5202">1990</tspan></text>
<text xml:space="preserve" transform="matrix(1 0 -0 1 0 245.592)" font-size="11.9552" font-family="Computer Modern"><tspan y="-40.959" x="472.277 478.13508 483.99314 489.8512">2000</tspan></text>
<text xml:space="preserve" transform="matrix(1 0 -0 1 0 245.592)" font-size="11.9552" font-family="Computer Modern"><tspan y="-40.959" x="540.607 546.465 552.32308 558.1811">2010</tspan></text>
<text xml:space="preserve" transform="matrix(1 0 -0 1 0 245.592)" font-size="11.9552" font-family="Computer Modern"><tspan y="-40.959" x="608.938 614.796 620.65408 626.5121">2020</tspan></text>
<text xml:space="preserve" transform="matrix(1 0 -0 1 0 245.592)" font-size="11.9552" font-family="Computer Modern"><tspan y="-52.633" x="30.41">0</tspan></text>
<text xml:space="preserve" transform="matrix(1 0 -0 1 .0000019073487 245.592)" font-size="11.9552" font-family="Computer Modern"><tspan y="-98.116" x="24.557 30.415047">20</tspan></text>
<text xml:space="preserve" transform="matrix(1 0 -0 1 .0000019073487 245.59201)" font-size="11.9552" font-family="Computer Modern"><tspan y="-143.6" x="24.557 30.415047">40</tspan></text>
<text xml:space="preserve" transform="matrix(1 0 -0 1 .0000019073487 245.592)" font-size="11.9552" font-family="Computer Modern"><tspan y="-189.084" x="24.557 30.415047">60</tspan></text>
<text xml:space="preserve" transform="matrix(1 0 -0 1 .0000019073487 245.592)" font-size="11.9552" font-family="Computer Modern"><tspan y="-234.568" x="24.557 30.415047">80</tspan></text>
<g clip-path="url(#clip_1)">
<path transform="matrix(1,0,0,-1,39.832,189.107)" d="M12.42097 0H14.91166V18.92145H12.42097ZM95.7856 0H98.27629V174.43236H95.7856ZM114.9185 0H117.409198V10.48413H114.9185ZM190.08335 0H192.57404V4.9123H190.08335ZM210.58284 0H213.07353V15.64659H210.58284ZM231.08235 0H233.57305V.25015H231.08235ZM236.54889 0H239.03958V19.71742H236.54889ZM239.28212 0H241.77281V14.98706H239.28212ZM251.58185 0H254.07254V55.21796H251.58185ZM299.41404 0H301.90473V120.03311H299.41404ZM313.08036 0H315.57106V1.93307H313.08036ZM324.69673 0H327.1874V21.05923H324.69673ZM328.79667 0H331.28736V.52306H328.79667ZM340.41304 0H342.90373V89.10378H340.41304ZM365.6957 0H368.1864V5.13972H365.6957ZM369.79566 0H372.28636V21.85521H369.79566ZM374.57887 0H377.06956V2.97922H374.57887ZM395.07838 0H397.56907V2.25145H395.07838ZM400.5449 0H403.03559V11.93962H400.5449ZM403.27815 0H405.76884V22.53748H403.27815ZM409.42805 0H411.91874V1.91032H409.42805ZM414.21125 0H416.70195V1.66017H414.21125ZM436.0774 0H438.56809V.75049H436.0774ZM449.7437 0H452.2344V74.09395H449.7437ZM456.57688 0H459.06758V.06822H456.57688ZM470.24324 0H472.73393V3.34308H470.24324ZM477.0764 0H479.56709V2.911H477.0764ZM490.7427 0H493.2334V2.13774H490.7427ZM496.20927 0H498.69996V20.37697H496.20927ZM498.9425 0H501.4332V20.80907H498.9425ZM518.0754 0H520.56607V10.34767H518.0754ZM531.74179 0H534.2324V13.62253H531.74179ZM545.4081 0H547.89877V2.34244H545.4081ZM559.0744 0H561.56509V.6595H559.0744ZM578.8905 0H581.38119V1.29628H578.8905ZM587.7737 0H590.26437V.90968H587.7737ZM598.7068 0H601.19747V17.9663H598.7068ZM601.44 0H603.93069V11.37108H601.44ZM613.73977 0H616.2304V4.38924H613.73977ZM620.5729 0H623.06356V3.66148H620.5729Z" fill="#b3b3ff"/>
<path transform="matrix(1,0,0,-1,39.832,189.107)" stroke-width=".49814" stroke-linecap="butt" stroke-miterlimit="10" stroke-linejoin="miter" fill="none" stroke="#0000ff" d="M12.42097 0H14.91166V18.92145H12.42097ZM95.7856 0H98.27629V174.43236H95.7856ZM114.9185 0H117.409198V10.48413H114.9185ZM190.08335 0H192.57404V4.9123H190.08335ZM210.58284 0H213.07353V15.64659H210.58284ZM231.08235 0H233.57305V.25015H231.08235ZM236.54889 0H239.03958V19.71742H236.54889ZM239.28212 0H241.77281V14.98706H239.28212ZM251.58185 0H254.07254V55.21796H251.58185ZM299.41404 0H301.90473V120.03311H299.41404ZM313.08036 0H315.57106V1.93307H313.08036ZM324.69673 0H327.1874V21.05923H324.69673ZM328.79667 0H331.28736V.52306H328.79667ZM340.41304 0H342.90373V89.10378H340.41304ZM365.6957 0H368.1864V5.13972H365.6957ZM369.79566 0H372.28636V21.85521H369.79566ZM374.57887 0H377.06956V2.97922H374.57887ZM395.07838 0H397.56907V2.25145H395.07838ZM400.5449 0H403.03559V11.93962H400.5449ZM403.27815 0H405.76884V22.53748H403.27815ZM409.42805 0H411.91874V1.91032H409.42805ZM414.21125 0H416.70195V1.66017H414.21125ZM436.0774 0H438.56809V.75049H436.0774ZM449.7437 0H452.2344V74.09395H449.7437ZM456.57688 0H459.06758V.06822H456.57688ZM470.24324 0H472.73393V3.34308H470.24324ZM477.0764 0H479.56709V2.911H477.0764ZM490.7427 0H493.2334V2.13774H490.7427ZM496.20927 0H498.69996V20.37697H496.20927ZM498.9425 0H501.4332V20.80907H498.9425ZM518.0754 0H520.56607V10.34767H518.0754ZM531.74179 0H534.2324V13.62253H531.74179ZM545.4081 0H547.89877V2.34244H545.4081ZM559.0744 0H561.56509V.6595H559.0744ZM578.8905 0H581.38119V1.29628H578.8905ZM587.7737 0H590.26437V.90968H587.7737ZM598.7068 0H601.19747V17.9663H598.7068ZM601.44 0H603.93069V11.37108H601.44ZM613.73977 0H616.2304V4.38924H613.73977ZM620.5729 0H623.06356V3.66148H620.5729Z"/>
<path transform="matrix(1,0,0,-1,39.832,189.107)" d="M73.9195 0H76.410198V9.73364H73.9195ZM93.05237 0H95.54306V18.08H93.05237ZM224.24918 0H226.73987V50.05548H224.24918ZM292.58088 0H295.07157V2.66081H292.58088ZM326.7467 0H329.2374V22.74216H326.7467ZM347.2462 0H349.73689V2.04678H347.2462ZM367.7457 0H370.2364V15.64659H367.7457ZM416.9445 0H419.43519V15.00981H416.9445ZM422.41105 0H424.90174V18.03453H422.41105Z" fill="#ffb3b3"/>
<path transform="matrix(1,0,0,-1,39.832,189.107)" stroke-width=".49814" stroke-linecap="butt" stroke-miterlimit="10" stroke-linejoin="miter" fill="none" stroke="#ff0000" d="M73.9195 0H76.410198V9.73364H73.9195ZM93.05237 0H95.54306V18.08H93.05237ZM224.24918 0H226.73987V50.05548H224.24918ZM292.58088 0H295.07157V2.66081H292.58088ZM326.7467 0H329.2374V22.74216H326.7467ZM347.2462 0H349.73689V2.04678H347.2462ZM367.7457 0H370.2364V15.64659H367.7457ZM416.9445 0H419.43519V15.00981H416.9445ZM422.41105 0H424.90174V18.03453H422.41105Z"/>
<path transform="matrix(1,0,0,-1,39.832,189.107)" stroke-width=".49814" stroke-linecap="butt" stroke-miterlimit="10" stroke-linejoin="miter" fill="none" stroke="#7f807f" d="M94.29771 19.19437V23.7428H89.51451V28.29123"/>
<text xml:space="preserve" transform="matrix(0 -1 1 0 221.095 289.997)" font-size="9.9626" font-family="Computer Modern"><tspan y="-88.345" x="132.75 138.97663 143.40003 148.10237">Leva</tspan></text>
<path transform="matrix(1,0,0,-1,39.832,189.107)" stroke-width=".49814" stroke-linecap="butt" stroke-miterlimit="10" stroke-linejoin="miter" fill="none" stroke="#7f807f" d="M97.03094 115.985V115.985H103.86412V120.53343"/>
<text xml:space="preserve" transform="matrix(0 -1 1 0 327.74 212.16)" font-size="9.9626" font-family="Computer Modern"><tspan y="-180.586" x="147.154 154.48648 159.46778 163.39304 171.13399 182.2124 189.54488 192.31449 196.73789">Rose&#x0026;Rizk</tspan></text>
<path transform="matrix(1,0,0,-1,39.832,189.107)" stroke-width=".49814" stroke-linecap="butt" stroke-miterlimit="10" stroke-linejoin="miter" fill="none" stroke="#7f807f" d="M232.3277 1.38727V96.90433H239.16086V101.45277"/>
<text xml:space="preserve" transform="matrix(0 -1 1 0 442.987 365.567)" font-size="9.9626" font-family="Computer Modern"><tspan y="-161.506" x="281.481 290.6167 295.0401 300.30036 304.1758 312.48463 323.55308 331.02503 335.72737 342.92036 345.68995 350.11335">Mehta&#x0026;Hawley</tspan></text>
<path transform="matrix(1,0,0,-1,39.832,189.107)" stroke-width=".49814" stroke-linecap="butt" stroke-miterlimit="10" stroke-linejoin="miter" fill="none" stroke="#7f807f" d="M240.52747 16.10144V20.64987H245.99402V25.1983"/>
<text xml:space="preserve" transform="matrix(0 -1 1 0 374.534 449.622)" font-size="9.9626" font-family="Computer Modern"><tspan y="-85.252" x="289.282 296.75398 299.52357 303.668 308.92826">Hicks</tspan></text>
<path transform="matrix(1,0,0,-1,39.832,189.107)" stroke-width=".49814" stroke-linecap="butt" stroke-miterlimit="10" stroke-linejoin="miter" fill="none" stroke="#7f807f" d="M300.65937 97.79128V97.79128H307.49256V102.3397"/>
<text xml:space="preserve" transform="matrix(0 -1 1 0 513.173 433.979)" font-size="9.9626" font-family="Computer Modern"><tspan y="-162.393" x="350.78 359.9157 364.897 369.3204 374.85963 379.8409 385.38014 390.36143 393.131 401.98777 406.41117 413.61415 418.59544 421.36503">Macdonaldetal.</tspan></text>
<path transform="matrix(1,0,0,-1,39.832,189.107)" stroke-width=".49814" stroke-linecap="butt" stroke-miterlimit="10" stroke-linejoin="miter" fill="none" stroke="#7f807f" d="M325.2588 22.19633V24.47055H320.4756V29.01898"/>
<text xml:space="preserve" transform="matrix(0 -1 1 0 452.836 520.282)" font-size="9.9626" font-family="Computer Modern"><tspan y="-89.073" x="363.763 369.44169 374.42298 378.34825 382.77165 387.75294 390.52253 398.82136 403.24476 410.43775 415.41905 418.18864">Foscoloetal.</tspan></text>
<path transform="matrix(1,0,0,-1,39.832,189.107)" stroke-width=".49814" stroke-linecap="butt" stroke-miterlimit="10" stroke-linejoin="miter" fill="none" stroke="#7f807f" d="M330.72529 1.6374V6.18585H335.50849V10.73428"/>
<text xml:space="preserve" transform="matrix(0 -1 1 0 449.585 553.599)" font-size="9.9626" font-family="Computer Modern"><tspan y="-70.789" x="378.796 383.91679 388.89808 394.4373 398.8607 406.1035 417.18193 424.93284 428.83818 431.60777 436.03117">Jones&#x0026;Krier</tspan></text>
<path transform="matrix(1,0,0,-1,39.832,189.107)" stroke-width=".49814" stroke-linecap="butt" stroke-miterlimit="10" stroke-linejoin="miter" fill="none" stroke="#7f807f" d="M366.2578 6.27682V10.82526H359.42466V15.37369"/>
<text xml:space="preserve" transform="matrix(0 -1 1 0 478.14 572.876)" font-size="9.9626" font-family="Computer Modern"><tspan y="-75.428" x="402.712 409.905 414.8863 423.18516 425.95475 429.8302 435.91734 446.99577 454.32826 458.75166 464.29087 469.27217 474.81138">Comiti&#x0026;Renaud</tspan></text>
<path transform="matrix(1,0,0,-1,39.832,189.107)" stroke-width=".49814" stroke-linecap="butt" stroke-miterlimit="10" stroke-linejoin="miter" fill="none" stroke="#7f807f" d="M368.99104 16.76096V21.30939H366.9411V96.3585"/>
<text xml:space="preserve" transform="matrix(0 -1 1 0 566.64 499.408)" font-size="9.9626" font-family="Computer Modern"><tspan y="-156.412" x="410.228 419.64265 424.62394 428.4994 433.48069 439.0199 444.0012 449.8094">Watanabe</tspan></text>
<path transform="matrix(1,0,0,-1,39.832,189.107)" stroke-width=".49814" stroke-linecap="butt" stroke-miterlimit="10" stroke-linejoin="miter" fill="none" stroke="#7f807f" d="M375.82423 4.13905V8.68748H379.2408V13.23592"/>
<text xml:space="preserve" transform="matrix(0 -1 1 0 495.81803 594.83)" font-size="9.9626" font-family="Computer Modern"><tspan y="-73.29" x="422.528 428.2067 433.188 438.7272 447.58396 452.00736 459.20036 464.18165 466.95124">Fandetal.</tspan></text>
<path transform="matrix(1,0,0,-1,39.832,189.107)" stroke-width=".49814" stroke-linecap="butt" stroke-miterlimit="10" stroke-linejoin="miter" fill="none" stroke="#7f807f" d="M396.32374 3.41132V9.09686H389.49055V13.6453"/>
<text xml:space="preserve" transform="matrix(0 -1 1 0 505.50898 603.701)" font-size="9.9626" font-family="Computer Modern"><tspan y="-73.7" x="431.809 437.48768 442.46897 448.00819 456.30705 460.73045 465.9907 474.56849 478.99189 486.19486 491.17616 493.94575">Foumenyetal.</tspan></text>
<path transform="matrix(1,0,0,-1,39.832,189.107)" stroke-width=".49814" stroke-linecap="butt" stroke-miterlimit="10" stroke-linejoin="miter" fill="none" stroke="#7f807f" d="M401.79026 13.09947V17.6479H396.32374V81.32596"/>
<text xml:space="preserve" transform="matrix(0 -1 1 0 580.989 543.823)" font-size="9.9626" font-family="Computer Modern"><tspan y="-141.379" x="439.61 445.8366 448.6062 457.46296 461.88636 469.08934 474.07063 476.8402">Liuetal.</tspan></text>
<path transform="matrix(1,0,0,-1,39.832,189.107)" stroke-width=".49814" stroke-linecap="butt" stroke-miterlimit="10" stroke-linejoin="miter" fill="none" stroke="#7f807f" d="M415.4566 2.82V84.69177H412.04V96.06287"/>
<text xml:space="preserve" transform="matrix(0 -1 1 0 610.474 543.834)" font-size="9.9626" font-family="Computer Modern"><tspan y="-156.116" x="454.358 461.551 465.45634 468.22593 472.10139 477.08268 482.6219 491.47865 502.55708 509.75007 515.2793 520.27059 524.16598 529.9841">Critoph&#x0026;Thorpe</tspan></text>
<path transform="matrix(1,0,0,-1,39.832,189.107)" stroke-width=".49814" stroke-linecap="butt" stroke-miterlimit="10" stroke-linejoin="miter" fill="none" stroke="#7f807f" d="M418.18983 16.12416V27.49525H420.23979V32.04369"/>
<text xml:space="preserve" transform="matrix(0 -1 1 0 555.624 617.02)" font-size="9.9626" font-family="Computer Modern"><tspan y="-92.098" x="463.526 470.99797 475.97926 480.96055 486.2208 490.09626 495.63548 501.17469 508.40754 519.476 527.29666 531.72006 534.4896 540.0288 545.01016 548.91549">Avontuur&#x0026;Geldart</tspan></text>
<path transform="matrix(1,0,0,-1,39.832,189.107)" stroke-width=".49814" stroke-linecap="butt" stroke-miterlimit="10" stroke-linejoin="miter" fill="none" stroke="#7f807f" d="M423.6564 19.17163V23.72006H430.48957V31.67982"/>
<text xml:space="preserve" transform="matrix(0 -1 1 0 564.541 626.66506)" font-size="9.9626" font-family="Computer Modern"><tspan y="-91.734" x="472.807 480.55793 483.3275 490.79948 495.22288 497.99247 500.76206 506.84919 517.9276 524.98117 529.40457 534.6648 539.6461 544.62747 550.1666 552.9362">O&#x2019;Neill&#x0026;Benyahia</tspan></text>
<path transform="matrix(1,0,0,-1,39.832,189.107)" stroke-width=".49814" stroke-linecap="butt" stroke-miterlimit="10" stroke-linejoin="miter" fill="none" stroke="#7f807f" d="M471.48857 4.48018V9.02861H469.4386V13.57704"/>
<text xml:space="preserve" transform="matrix(0 -1 1 0 586.355 684.685)" font-size="9.9626" font-family="Computer Modern"><tspan y="-73.631" x="512.724 520.33547 526.4226 532.10128 536.52468 539.29428 542.06387 546.48727 554.2282 565.30667 573.12728 575.89688 581.43606 584.2056 586.9752 591.95657 595.8619">DiFelice&#x0026;Gibilaro</tspan></text>
<path transform="matrix(1,0,0,-1,39.832,189.107)" stroke-width=".49814" stroke-linecap="butt" stroke-miterlimit="10" stroke-linejoin="miter" fill="none" stroke="#7f807f" d="M491.98808 3.25212V7.80055H488.5715V12.34898"/>
<text xml:space="preserve" transform="matrix(0 -1 1 0 604.26 705.046)" font-size="9.9626" font-family="Computer Modern"><tspan y="-72.403" x="531.857 540.9927 545.974 551.23428 555.1097 557.8793 560.64889 563.41848 567.84188 575.03488 579.45828 586.6612 591.6425 594.4121">Montilletetal.</tspan></text>
<path transform="matrix(1,0,0,-1,39.832,189.107)" stroke-width=".49814" stroke-linecap="butt" stroke-miterlimit="10" stroke-linejoin="miter" fill="none" stroke="#7f807f" d="M500.18785 22.0144V24.28862H507.021V28.83705"/>
<text xml:space="preserve" transform="matrix(0 -1 1 0 639.355 707.165)" font-size="9.9626" font-family="Computer Modern"><tspan y="-88.891" x="550.464 551.8488 557.65707 562.63839 566.5437 572.0829 574.8525 580.39169 583.16128 585.9209 590.9022 590.9022 595.88357 598.65316 607.51986">C&#x00b8;arpinlio&#x02d8;glu&#x0026;</tspan><tspan y="-91.409" x="619.954">&#x00a8;</tspan><tspan y="-88.891" x="618.57 626.3209 630.7443 635.72567 641.26486">Ozahi</tspan></text>
<path transform="matrix(1,0,0,-1,39.832,189.107)" stroke-width=".49814" stroke-linecap="butt" stroke-miterlimit="10" stroke-linejoin="miter" fill="none" stroke="#7f807f" d="M602.68539 12.50818V17.05661H606.7853V60.26671"/>
<text xml:space="preserve" transform="matrix(0 -1 1 0 769.42 774.37197)" font-size="9.9626" font-family="Computer Modern"><tspan y="-120.32" x="649.1 656.43246 660.85586 665.83718 670.26058 677.48348 681.90689 689.1098 694.0911 696.8607">Regeretal.</tspan></text>
</g>
<path transform="matrix(1,0,0,-1,39.832,189.107)" d="" fill="#b3b3ff"/>
<path transform="matrix(1,0,0,-1,39.832,189.107)" stroke-width=".49814" stroke-linecap="butt" stroke-miterlimit="10" stroke-linejoin="miter" fill="none" stroke="#0000ff" d=""/>
<text xml:space="preserve" transform="matrix(0 -1 1 0 135.54599 223.85)" font-size="9.9626" font-family="Computer Modern"><tspan y="-78.644" x="56.902 64.095 69.0763 72.98164 81.28049 86.26179">Carman</tspan></text>
<path transform="matrix(1,0,0,-1,39.832,189.107)" d="" fill="#b3b3ff"/>
<path transform="matrix(1,0,0,-1,39.832,189.107)" stroke-width=".49814" stroke-linecap="butt" stroke-miterlimit="10" stroke-linejoin="miter" fill="none" stroke="#0000ff" d=""/>
<path transform="matrix(1,0,0,-1,39.832,189.107)" d="" fill="#b3b3ff"/>
<path transform="matrix(1,0,0,-1,39.832,189.107)" stroke-width=".49814" stroke-linecap="butt" stroke-miterlimit="10" stroke-linejoin="miter" fill="none" stroke="#0000ff" d=""/>
<text xml:space="preserve" transform="matrix(0 -1 1 0 228.637 333.815)" font-size="9.9626" font-family="Computer Modern"><tspan y="-70.207" x="158.43 165.21453 169.11986 174.10115 179.64035">Ergun</tspan></text>
<path transform="matrix(1,0,0,-1,39.832,189.107)" d="" fill="#b3b3ff"/>
<path transform="matrix(1,0,0,-1,39.832,189.107)" stroke-width=".49814" stroke-linecap="butt" stroke-miterlimit="10" stroke-linejoin="miter" fill="none" stroke="#0000ff" d=""/>
<text xml:space="preserve" transform="matrix(0 -1 1 0 299.253 415.575)" font-size="9.9626" font-family="Computer Modern"><tspan y="-64.635" x="234.618 244.03266 248.45606 253.71631 257.59178 265.3327 276.41114 283.60414 289.14335 294.39363 299.93284 304.91413">Wentz&#x0026;Thodos</tspan></text>
<path transform="matrix(1,0,0,-1,39.832,189.107)" d="" fill="#b3b3ff"/>
<path transform="matrix(1,0,0,-1,39.832,189.107)" stroke-width=".49814" stroke-linecap="butt" stroke-miterlimit="10" stroke-linejoin="miter" fill="none" stroke="#0000ff" d=""/>
<text xml:space="preserve" transform="matrix(0 -1 1 0 330.48603 425.34)" font-size="9.9626" font-family="Computer Modern"><tspan y="-75.369" x="255.117 263.14689 262.86793 268.40715 272.31248 276.18794 280.61134 289.46809 293.89149 301.09446 306.07575 308.84535">K&#x00a8;urtenetal.</tspan></text>
<text xml:space="preserve" transform="matrix(0 -1 1 0 330.48603 425.34)" font-size="6.9738" font-family="Computer Modern" font-style="italic"><tspan y="-78.984" x="311.6">&#x2217;</tspan></text>
<path transform="matrix(1,0,0,-1,39.832,189.107)" d="" fill="#b3b3ff"/>
<path transform="matrix(1,0,0,-1,39.832,189.107)" stroke-width=".49814" stroke-linecap="butt" stroke-miterlimit="10" stroke-linejoin="miter" fill="none" stroke="#0000ff" d=""/>
<path transform="matrix(1,0,0,-1,39.832,189.107)" d="" fill="#b3b3ff"/>
<path transform="matrix(1,0,0,-1,39.832,189.107)" stroke-width=".49814" stroke-linecap="butt" stroke-miterlimit="10" stroke-linejoin="miter" fill="none" stroke="#0000ff" d=""/>
<text xml:space="preserve" transform="matrix(0 -1 1 0 359.55403 446.266)" font-size="9.9626" font-family="Computer Modern"><tspan y="-79.44" x="280.114 286.4801 291.4614 294.231 297.00059 305.29945 310.28074 315.81996 320.80125">Tallmadge</tspan></text>
<path transform="matrix(1,0,0,-1,39.832,189.107)" d="" fill="#b3b3ff"/>
<path transform="matrix(1,0,0,-1,39.832,189.107)" stroke-width=".49814" stroke-linecap="butt" stroke-miterlimit="10" stroke-linejoin="miter" fill="none" stroke="#0000ff" d=""/>
<path transform="matrix(1,0,0,-1,39.832,189.107)" d="" fill="#b3b3ff"/>
<path transform="matrix(1,0,0,-1,39.832,189.107)" stroke-width=".49814" stroke-linecap="butt" stroke-miterlimit="10" stroke-linejoin="miter" fill="none" stroke="#0000ff" d=""/>
<text xml:space="preserve" transform="matrix(0 -1 1 0 411.055 426.76698)" font-size="9.9626" font-family="Computer Modern"><tspan y="-114.94" x="296.115 303.44749 307.87089 310.64048 314.7849 320.32414 324.74754 327.51713">Reichelt</tspan></text>
<path transform="matrix(1,0,0,-1,39.832,189.107)" d="" fill="#b3b3ff"/>
<path transform="matrix(1,0,0,-1,39.832,189.107)" stroke-width=".49814" stroke-linecap="butt" stroke-miterlimit="10" stroke-linejoin="miter" fill="none" stroke="#0000ff" d=""/>
<path transform="matrix(1,0,0,-1,39.832,189.107)" d="" fill="#b3b3ff"/>
<path transform="matrix(1,0,0,-1,39.832,189.107)" stroke-width=".49814" stroke-linecap="butt" stroke-miterlimit="10" stroke-linejoin="miter" fill="none" stroke="#0000ff" d=""/>
<text xml:space="preserve" transform="matrix(0 -1 1 0 419.21403 541.494)" font-size="9.9626" font-family="Computer Modern"><tspan y="-61.656" x="357.558 365.30894 371.67503">KTA</tspan></text>
<path transform="matrix(1,0,0,-1,39.832,189.107)" d="" fill="#b3b3ff"/>
<path transform="matrix(1,0,0,-1,39.832,189.107)" stroke-width=".49814" stroke-linecap="butt" stroke-miterlimit="10" stroke-linejoin="miter" fill="none" stroke="#0000ff" d=""/>
<path transform="matrix(1,0,0,-1,39.832,189.107)" d="" fill="#b3b3ff"/>
<path transform="matrix(1,0,0,-1,39.832,189.107)" stroke-width=".49814" stroke-linecap="butt" stroke-miterlimit="10" stroke-linejoin="miter" fill="none" stroke="#0000ff" d=""/>
<path transform="matrix(1,0,0,-1,39.832,189.107)" d="" fill="#b3b3ff"/>
<path transform="matrix(1,0,0,-1,39.832,189.107)" stroke-width=".49814" stroke-linecap="butt" stroke-miterlimit="10" stroke-linejoin="miter" fill="none" stroke="#0000ff" d=""/>
<text xml:space="preserve" transform="matrix(0 -1 1 0 532.802 480.744)" font-size="9.9626" font-family="Computer Modern"><tspan y="-148.825" x="383.977 393.1127 397.5361 402.5174 406.9408 414.17366 425.2421 430.7813 439.08018 441.84977 445.72523">Meyer&#x0026;Smith</tspan></text>
<path transform="matrix(1,0,0,-1,39.832,189.107)" d="" fill="#b3b3ff"/>
<path transform="matrix(1,0,0,-1,39.832,189.107)" stroke-width=".49814" stroke-linecap="butt" stroke-miterlimit="10" stroke-linejoin="miter" fill="none" stroke="#0000ff" d=""/>
<path transform="matrix(1,0,0,-1,39.832,189.107)" d="" fill="#b3b3ff"/>
<path transform="matrix(1,0,0,-1,39.832,189.107)" stroke-width=".49814" stroke-linecap="butt" stroke-miterlimit="10" stroke-linejoin="miter" fill="none" stroke="#0000ff" d=""/>
<text xml:space="preserve" transform="matrix(0 -1 1 0 495.906 578.342)" font-size="9.9626" font-family="Computer Modern"><tspan y="-81.578" x="414.328 419.86723 423.74269 426.51228 430.6567 436.19593 438.9655 447.26438 452.24568 455.01527">Stichlmair</tspan></text>
<path transform="matrix(1,0,0,-1,39.832,189.107)" d="" fill="#b3b3ff"/>
<path transform="matrix(1,0,0,-1,39.832,189.107)" stroke-width=".49814" stroke-linecap="butt" stroke-miterlimit="10" stroke-linejoin="miter" fill="none" stroke="#0000ff" d=""/>
<path transform="matrix(1,0,0,-1,39.832,189.107)" d="" fill="#b3b3ff"/>
<path transform="matrix(1,0,0,-1,39.832,189.107)" stroke-width=".49814" stroke-linecap="butt" stroke-miterlimit="10" stroke-linejoin="miter" fill="none" stroke="#0000ff" d=""/>
<path transform="matrix(1,0,0,-1,39.832,189.107)" d="" fill="#b3b3ff"/>
<path transform="matrix(1,0,0,-1,39.832,189.107)" stroke-width=".49814" stroke-linecap="butt" stroke-miterlimit="10" stroke-linejoin="miter" fill="none" stroke="#0000ff" d=""/>
<path transform="matrix(1,0,0,-1,39.832,189.107)" d="" fill="#b3b3ff"/>
<path transform="matrix(1,0,0,-1,39.832,189.107)" stroke-width=".49814" stroke-linecap="butt" stroke-miterlimit="10" stroke-linejoin="miter" fill="none" stroke="#0000ff" d=""/>
<text xml:space="preserve" transform="matrix(0 -1 1 0 529.101 610.173)" font-size="9.9626" font-family="Computer Modern"><tspan y="-82.26" x="446.841 453.06764 457.49104 465.23197 476.3104 484.0613 489.0426 493.74494 500.65898">Lee&#x0026;Ogawa</tspan></text>
<path transform="matrix(1,0,0,-1,39.832,189.107)" d="" fill="#b3b3ff"/>
<path transform="matrix(1,0,0,-1,39.832,189.107)" stroke-width=".49814" stroke-linecap="butt" stroke-miterlimit="10" stroke-linejoin="miter" fill="none" stroke="#0000ff" d=""/>
<text xml:space="preserve" transform="matrix(0 -1 1 0 514.624 636.95)" font-size="9.9626" font-family="Computer Modern"><tspan y="-61.633" x="452.991 460.46296 465.16529 470.14659 474.56999 481.82276 486.24617 493.43916 498.42045 501.19004">Hayesetal.</tspan></text>
<path transform="matrix(1,0,0,-1,39.832,189.107)" d="" fill="#b3b3ff"/>
<path transform="matrix(1,0,0,-1,39.832,189.107)" stroke-width=".49814" stroke-linecap="butt" stroke-miterlimit="10" stroke-linejoin="miter" fill="none" stroke="#0000ff" d=""/>
<path transform="matrix(1,0,0,-1,39.832,189.107)" d="" fill="#b3b3ff"/>
<path transform="matrix(1,0,0,-1,39.832,189.107)" stroke-width=".49814" stroke-linecap="butt" stroke-miterlimit="10" stroke-linejoin="miter" fill="none" stroke="#0000ff" d=""/>
<text xml:space="preserve" transform="matrix(0 -1 1 0 541.08206 665.728)" font-size="9.9626" font-family="Computer Modern"><tspan y="-60.473" x="480.609 487.9415 492.9228 495.69239 499.83683 505.09709 510.6363 514.5416">Raichura</tspan></text>
<path transform="matrix(1,0,0,-1,39.832,189.107)" d="" fill="#b3b3ff"/>
<path transform="matrix(1,0,0,-1,39.832,189.107)" stroke-width=".49814" stroke-linecap="butt" stroke-miterlimit="10" stroke-linejoin="miter" fill="none" stroke="#0000ff" d=""/>
<text xml:space="preserve" transform="matrix(0 -1 1 0 628.091 606.05099)" font-size="9.9626" font-family="Computer Modern"><tspan y="-133.816" x="494.275 501.05955 503.82914 507.7544 510.80296 515.2263 517.9959 526.85269 537.9311 543.4703 547.61477 553.15396 558.6931 561.4627 565.33816 569.76156 572.5311 576.9545 579.7241">Eisfeld&#x0026;Schnitzlein</tspan></text>
<path transform="matrix(1,0,0,-1,39.832,189.107)" d="" fill="#b3b3ff"/>
<path transform="matrix(1,0,0,-1,39.832,189.107)" stroke-width=".49814" stroke-linecap="butt" stroke-miterlimit="10" stroke-linejoin="miter" fill="none" stroke="#0000ff" d=""/>
<text xml:space="preserve" transform="matrix(0 -1 1 0 560.899 686.909)" font-size="9.9626" font-family="Computer Modern"><tspan y="-59.791" x="501.108 507.75306 516.6098 521.0332 528.2262 533.2075 535.9771">Yuetal.</tspan></text>
<path transform="matrix(1,0,0,-1,39.832,189.107)" d="" fill="#b3b3ff"/>
<path transform="matrix(1,0,0,-1,39.832,189.107)" stroke-width=".49814" stroke-linecap="butt" stroke-miterlimit="10" stroke-linejoin="miter" fill="none" stroke="#0000ff" d=""/>
<path transform="matrix(1,0,0,-1,39.832,189.107)" d="" fill="#b3b3ff"/>
<path transform="matrix(1,0,0,-1,39.832,189.107)" stroke-width=".49814" stroke-linecap="butt" stroke-miterlimit="10" stroke-linejoin="miter" fill="none" stroke="#0000ff" d=""/>
<text xml:space="preserve" transform="matrix(0 -1 1 0 584.24099 704.565)" font-size="9.9626" font-family="Computer Modern"><tspan y="-62.634" x="521.607 529.0789 533.5023 541.80117 546.22457 553.97549 565.04397 571.27059 575.694 580.6753 585.0987">Nemec&#x0026;Levec</tspan></text>
<path transform="matrix(1,0,0,-1,39.832,189.107)" d="" fill="#b3b3ff"/>
<path transform="matrix(1,0,0,-1,39.832,189.107)" stroke-width=".49814" stroke-linecap="butt" stroke-miterlimit="10" stroke-linejoin="miter" fill="none" stroke="#0000ff" d=""/>
<path transform="matrix(1,0,0,-1,39.832,189.107)" d="" fill="#b3b3ff"/>
<path transform="matrix(1,0,0,-1,39.832,189.107)" stroke-width=".49814" stroke-linecap="butt" stroke-miterlimit="10" stroke-linejoin="miter" fill="none" stroke="#0000ff" d=""/>
<text xml:space="preserve" transform="matrix(0 -1 1 0 621.96597 707.35806)" font-size="9.9626" font-family="Computer Modern"><tspan y="-82.618" x="543.25">&#x00a8;</tspan><tspan y="-80.1" x="541.866 549.61697 554.04037 559.02169 564.56088 570.648 575.0714 582.27438 587.2557 590.02529">Ozahietal.</tspan></text>
<path transform="matrix(1,0,0,-1,39.832,189.107)" d="" fill="#b3b3ff"/>
<path transform="matrix(1,0,0,-1,39.832,189.107)" stroke-width=".49814" stroke-linecap="butt" stroke-miterlimit="10" stroke-linejoin="miter" fill="none" stroke="#0000ff" d=""/>
<path transform="matrix(1,0,0,-1,39.832,189.107)" d="" fill="#b3b3ff"/>
<path transform="matrix(1,0,0,-1,39.832,189.107)" stroke-width=".49814" stroke-linecap="butt" stroke-miterlimit="10" stroke-linejoin="miter" fill="none" stroke="#0000ff" d=""/>
<text xml:space="preserve" transform="matrix(0 -1 1 0 631.707 737.159)" font-size="9.9626" font-family="Computer Modern"><tspan y="-70.07" x="561.637 568.83 574.3692 578.7926 584.3318">Cheng</tspan></text>
<path transform="matrix(1,0,0,-1,39.832,189.107)" d="" fill="#b3b3ff"/>
<path transform="matrix(1,0,0,-1,39.832,189.107)" stroke-width=".49814" stroke-linecap="butt" stroke-miterlimit="10" stroke-linejoin="miter" fill="none" stroke="#0000ff" d=""/>
<text xml:space="preserve" transform="matrix(0 -1 1 0 649.61697 748.519)" font-size="9.9626" font-family="Computer Modern"><tspan y="-73.345" x="576.272 583.7439 588.7252 592.63058 596.5359 599.3055 603.2308 608.2121 617.06887 621.49227 628.6952 633.6765 636.4461">Harrisonetal.</tspan></text>
<path transform="matrix(1,0,0,-1,39.832,189.107)" d="" fill="#b3b3ff"/>
<path transform="matrix(1,0,0,-1,39.832,189.107)" stroke-width=".49814" stroke-linecap="butt" stroke-miterlimit="10" stroke-linejoin="miter" fill="none" stroke="#0000ff" d=""/>
<text xml:space="preserve" transform="matrix(0 -1 1 0 652.003 773.46499)" font-size="9.9626" font-family="Computer Modern"><tspan y="-62.065" x="589.938 596.72256 600.62789 606.16708 608.93667">Erdim</tspan></text>
<path transform="matrix(1,0,0,-1,39.832,189.107)" d="" fill="#b3b3ff"/>
<path transform="matrix(1,0,0,-1,39.832,189.107)" stroke-width=".49814" stroke-linecap="butt" stroke-miterlimit="10" stroke-linejoin="miter" fill="none" stroke="#0000ff" d=""/>
<text xml:space="preserve" transform="matrix(0 -1 1 0 663.986 788.81399)" font-size="9.9626" font-family="Computer Modern"><tspan y="-60.382" x="603.604 611.4246 616.9638 625.2627 629.6861 636.88906 641.87039 644.63998">Guoetal.</tspan></text>
<path transform="matrix(1,0,0,-1,39.832,189.107)" d="" fill="#b3b3ff"/>
<path transform="matrix(1,0,0,-1,39.832,189.107)" stroke-width=".49814" stroke-linecap="butt" stroke-miterlimit="10" stroke-linejoin="miter" fill="none" stroke="#0000ff" d=""/>
<text xml:space="preserve" transform="matrix(0 -1 1 0 684.439 807.993)" font-size="9.9626" font-family="Computer Modern"><tspan y="-61.019" x="623.42 628.95919 633.38259 637.52706 642.50839 646.9417 652.47097 658.01016 662.99148 666.8968 669.8009 676.0325 680.4559 687.64889 692.6302 695.3998">Seckendorffetal.</tspan></text>
<path transform="matrix(1,0,0,-1,39.832,189.107)" d="" fill="#b3b3ff"/>
<path transform="matrix(1,0,0,-1,39.832,189.107)" stroke-width=".49814" stroke-linecap="butt" stroke-miterlimit="10" stroke-linejoin="miter" fill="none" stroke="#0000ff" d=""/>
<text xml:space="preserve" transform="matrix(0 -1 1 0 691.966 816.29397)" font-size="9.9626" font-family="Computer Modern"><tspan y="-60.632" x="631.334 638.527 644.06619 648.48959 654.02877 662.32766 666.75106 673.954 678.9353 681.7049">Chengetal.</tspan></text>
<path transform="matrix(1,0,0,-1,39.832,189.107)" d="" fill="#b3b3ff"/>
<path transform="matrix(1,0,0,-1,39.832,189.107)" stroke-width=".49814" stroke-linecap="butt" stroke-miterlimit="10" stroke-linejoin="miter" fill="none" stroke="#0000ff" d=""/>
<text xml:space="preserve" transform="matrix(0 -1 1 0 720.87008 811.08407)" font-size="9.9626" font-family="Computer Modern"><tspan y="-77.689" x="643.181 650.7925 653.5621 658.8223 663.80368">Dixon</tspan></text>
<path transform="matrix(1,0,0,-1,39.832,189.107)" d="" fill="#b3b3ff"/>
<path transform="matrix(1,0,0,-1,39.832,189.107)" stroke-width=".49814" stroke-linecap="butt" stroke-miterlimit="10" stroke-linejoin="miter" fill="none" stroke="#0000ff" d=""/>
<path transform="matrix(1,0,0,-1,39.832,189.107)" d="" fill="#b3b3ff"/>
<path transform="matrix(1,0,0,-1,39.832,189.107)" stroke-width=".49814" stroke-linecap="butt" stroke-miterlimit="10" stroke-linejoin="miter" fill="none" stroke="#0000ff" d=""/>
<text xml:space="preserve" transform="matrix(0 -1 1 0 722.38107 839.74899)" font-size="9.9626" font-family="Computer Modern"><tspan y="-64.112" x="658.269 667.68368 676.5404 687.6089 695.0808 697.8504 703.3896 706.1592 711.41946">Wu&#x0026;Hibiki</tspan></text>
<path transform="matrix(1,0,0,-1,39.832,189.107)" d="" fill="#b3b3ff"/>
<path transform="matrix(1,0,0,-1,39.832,189.107)" stroke-width=".49814" stroke-linecap="butt" stroke-miterlimit="10" stroke-linejoin="miter" fill="none" stroke="#0000ff" d=""/>
<text xml:space="preserve" transform="matrix(0 -1 1 0 728.486 847.31)" font-size="9.9626" font-family="Computer Modern"><tspan y="-63.384" x="665.102 672.5739 681.43069 685.85409 693.057 698.0383 700.8079">Xuetal.</tspan></text>
<path transform="matrix(1,0,0,-1,39.832,189.107)" d="" fill="#b3b3ff"/>
<path transform="matrix(1,0,0,-1,39.832,189.107)" stroke-width=".49814" stroke-linecap="butt" stroke-miterlimit="10" stroke-linejoin="miter" fill="none" stroke="#0000ff" d=""/>
<path transform="matrix(1,0,0,-1,39.832,189.107)" d="" fill="#ffb3b3"/>
<path transform="matrix(1,0,0,-1,39.832,189.107)" stroke-width=".49814" stroke-linecap="butt" stroke-miterlimit="10" stroke-linejoin="miter" fill="none" stroke="#ff0000" d=""/>
<text xml:space="preserve" transform="matrix(0 -1 1 0 187.856 294.536)" font-size="9.9626" font-family="Computer Modern"><tspan y="-69.456" x="118.4 127.535709 132.517 136.42234 140.84574 145.82703">Morcom</tspan></text>
<path transform="matrix(1,0,0,-1,39.832,189.107)" d="" fill="#ffb3b3"/>
<path transform="matrix(1,0,0,-1,39.832,189.107)" stroke-width=".49814" stroke-linecap="butt" stroke-miterlimit="10" stroke-linejoin="miter" fill="none" stroke="#ff0000" d=""/>
<path transform="matrix(1,0,0,-1,39.832,189.107)" d="" fill="#ffb3b3"/>
<path transform="matrix(1,0,0,-1,39.832,189.107)" stroke-width=".49814" stroke-linecap="butt" stroke-miterlimit="10" stroke-linejoin="miter" fill="none" stroke="#ff0000" d=""/>
<text xml:space="preserve" transform="matrix(0 -1 1 0 377.59303 403.629)" font-size="9.9626" font-family="Computer Modern"><tspan y="-109.778" x="267.815 275.28697 280.26826 285.80747 291.34669 294.11628 298.53968 307.11747 318.1959 325.66786 330.09126 335.07255 340.05384">Handley&#x0026;Heggs</tspan></text>
<path transform="matrix(1,0,0,-1,39.832,189.107)" d="" fill="#ffb3b3"/>
<path transform="matrix(1,0,0,-1,39.832,189.107)" stroke-width=".49814" stroke-linecap="butt" stroke-miterlimit="10" stroke-linejoin="miter" fill="none" stroke="#ff0000" d=""/>
<text xml:space="preserve" transform="matrix(0 -1 1 0 398.529 519.35299)" font-size="9.9626" font-family="Computer Modern"><tspan y="-62.384" x="336.145 343.8959 349.43513 357.73396 368.81239 376.28434 381.5446 387.0838 391.5072 396.4885 401.4698 405.8932">Kuo&#x0026;Nydegger</tspan></text>
<path transform="matrix(1,0,0,-1,39.832,189.107)" d="" fill="#ffb3b3"/>
<path transform="matrix(1,0,0,-1,39.832,189.107)" stroke-width=".49814" stroke-linecap="butt" stroke-miterlimit="10" stroke-linejoin="miter" fill="none" stroke="#ff0000" d=""/>
<text xml:space="preserve" transform="matrix(0 -1 1 0 453.744 534.406)" font-size="9.9626" font-family="Computer Modern"><tspan y="-82.465" x="371.279 376.95768 381.93898 387.47819 390.24778 394.67118 403.52793 414.59638 420.1356 424.29 429.81929 433.7246 436.4942 441.48548 445.90888">Fahien&#x0026;Schriver</tspan></text>
<path transform="matrix(1,0,0,-1,39.832,189.107)" d="" fill="#ffb3b3"/>
<path transform="matrix(1,0,0,-1,39.832,189.107)" stroke-width=".49814" stroke-linecap="butt" stroke-miterlimit="10" stroke-linejoin="miter" fill="none" stroke="#ff0000" d=""/>
<text xml:space="preserve" transform="matrix(0 -1 1 0 453.54899 575.60098)" font-size="9.9626" font-family="Computer Modern"><tspan y="-61.77" x="391.779 398.28459 403.26588 407.14134 411.56474 415.47007 419.39533 424.37663 433.23338 437.66673 444.8597 449.841 452.6106">Patersonetal.</tspan></text>
<path transform="matrix(1,0,0,-1,39.832,189.107)" d="" fill="#ffb3b3"/>
<path transform="matrix(1,0,0,-1,39.832,189.107)" stroke-width=".49814" stroke-linecap="butt" stroke-miterlimit="10" stroke-linejoin="miter" fill="none" stroke="#ff0000" d=""/>
<path transform="matrix(1,0,0,-1,39.832,189.107)" d="" fill="#ffb3b3"/>
<path transform="matrix(1,0,0,-1,39.832,189.107)" stroke-width=".49814" stroke-linecap="butt" stroke-miterlimit="10" stroke-linejoin="miter" fill="none" stroke="#ff0000" d=""/>
<path transform="matrix(1,0,0,-1,39.832,189.107)" d="" fill="#ffb3b3"/>
<path transform="matrix(1,0,0,-1,39.832,189.107)" stroke-width=".49814" stroke-linecap="butt" stroke-miterlimit="10" stroke-linejoin="miter" fill="none" stroke="#ff0000" d=""/>
<path transform="matrix(1,0,0,-1,39.832,189.107)" d="" fill="#ffb3b3"/>
<path transform="matrix(1,0,0,-1,39.832,189.107)" stroke-width=".49814" stroke-linecap="butt" stroke-miterlimit="10" stroke-linejoin="miter" fill="none" stroke="#ff0000" d=""/>
<text xml:space="preserve" transform="matrix(1 0 -0 1 0 245.592)" font-size="14.3462" font-family="Computer Modern"><tspan y="-24.106" x="306.748 316.30256 324.10688 331.9112 335.81336 339.7155 345.95613 352.98576 358.45167 362.35383 369.38346 381.86463 389.66896 396.69859 402.1645">Publicationdate</tspan></text>
<text xml:space="preserve" transform="matrix(0 -1 1 0 119.976009 153.776)" font-size="14.3462" font-family="Computer Modern"><tspan y="-105.896" x="14.08 24.222764 30.865054 37.89469 44.13529 49.58684 56.616479 63.64612 74.57793 80.04383 91.75033">Coverage(%)</tspan></text>
<path transform="matrix(1,0,0,-1,39.832,189.107)" d="M498.33 146.50006H622.5231V178.04866H498.33Z" fill="#ffffff"/>
<path transform="matrix(1,0,0,-1,39.832,189.107)" stroke-width=".49814" stroke-linecap="butt" stroke-miterlimit="10" stroke-linejoin="miter" fill="none" stroke="#000000" d="M498.33 146.50006H622.5231V178.04866H498.33Z"/>
<path transform="matrix(1,0,0,-1,542.888,19.943999)" d="M-1.49442-1.99252H1.49441V5.9777104H-1.49442ZM4.48325-1.99252H7.47208V3.9851804H4.48325Z" fill="#b3b3ff"/>
<path transform="matrix(1,0,0,-1,542.888,19.943999)" stroke-width=".49814" stroke-linecap="butt" stroke-miterlimit="10" stroke-linejoin="miter" fill="none" stroke="#0000ff" d="M-1.49442-1.99252H1.49441V5.9777104H-1.49442ZM4.48325-1.99252H7.47208V3.9851804H4.48325Z"/>
<text xml:space="preserve" transform="matrix(1 0 -0 1 0 245.592)" font-size="11.9552" font-family="Computer Modern"><tspan y="-222.244" x="552.602 561.0543 566.91238 573.41598 576.6678 579.91958 584.4745 594.2299 599.4304 609.8314 619.58688 625.7677 632.2713 637.4718 640.72366">Confirmedmodels</tspan></text>
<path transform="matrix(1,0,0,-1,542.888,33.725999)" d="M-1.49442-1.99252H1.49441V5.9777104H-1.49442ZM4.48325-1.99252H7.47208V3.9851804H4.48325Z" fill="#ffb3b3"/>
<path transform="matrix(1,0,0,-1,542.888,33.725999)" stroke-width=".49814" stroke-linecap="butt" stroke-miterlimit="10" stroke-linejoin="miter" fill="none" stroke="#ff0000" d="M-1.49442-1.99252H1.49441V5.9777104H-1.49442ZM4.48325-1.99252H7.47208V3.9851804H4.48325Z"/>
<text xml:space="preserve" transform="matrix(1 0 -0 1 0 245.592)" font-size="11.9552" font-family="Computer Modern"><tspan y="-208.463" x="552.602 561.37716 567.88076 573.08126 578.9393 585.4429 588.6947 591.9465 596.5014 606.25686 611.45736 621.85836 631.6138 637.7946 644.2982 649.4987 652.75057">Unconfirmedmodels</tspan></text>
<text xml:space="preserve" transform="matrix(1 0 -0 1 .00000047683718 245.592)" font-size="7.9701" font-family="Computer Modern" font-style="italic"><tspan y="-10.648" x="3.52">&#x2217;</tspan></text>
<text xml:space="preserve" transform="matrix(1 0 -0 1 .00000047683718 245.592)" font-size="11.9552" font-family="Computer Modern"><tspan y="-6.31" x="12.153999 21.263863 25.818795 29.070609 34.928659 38.180475 44.6841 50.54215 57.69136 62.891874 68.74992 73.304859 77.85979 83.0603 86.31212 92.170169 96.7251 99.97691 105.83496 116.235988 119.4878 128.01186 131.58646 137.4445 145.89684 155.65229 160.26699 163.5188 170.02243 175.88048 179.1323 188.24216 194.74579 200.59189 205.14682 209.70175 212.95357 218.15409 221.4059 226.60642 235.71628 243.67844 249.85927 254.4142 258.96913 264.82719 271.6536 277.51167 280.76347 286.62153 291.17646 296.37696 306.77799 311.33293 321.10035 330.8558 337.35945 343.2175 348.0952 353.9413 359.1418 369.5548 376.38124 381.58174 391.98277 398.1636">Originalcorrelationisforasingleparticle.Extrapolatedtoapackedbedby</tspan><tspan y="-9.332" x="409.792">&#x00a8;</tspan><tspan y="-6.3099997" x="408.166 417.27586 422.47636 428.3344 434.83805 441.98725 447.18775 455.65205 461.5101 464.7619 473.8598 478.41474 484.2728 490.13087 495.98893 501.847">Ozahietal.(2008)</tspan></text>
</svg>
